<?xml version="1.0" standalone="no"?>
<!DOCTYPE svg PUBLIC "-//W3C//DTD SVG 20010904//EN"
 "http://www.w3.org/TR/2001/REC-SVG-20010904/DTD/svg10.dtd">
<svg version="1.0" xmlns="http://www.w3.org/2000/svg"
 width="766.000000pt" height="1021.000000pt" viewBox="0 0 766.000000 1021.000000"
 preserveAspectRatio="xMidYMid meet">
<metadata>
Created by potrace 1.16, written by Peter Selinger 2001-2019
</metadata>
<g transform="translate(0.000000,1021.000000) scale(0.100000,-0.100000)"
fill="#000000" stroke="none">
<path d="M0 6256 l0 -3955 285 139 c317 154 500 230 735 303 205 63 535 129
506 100 -14 -14 -76 -30 -103 -27 -24 4 -25 3 -8 -5 16 -8 12 -10 -25 -12 -75
-4 -84 -6 -114 -18 -16 -7 -46 -14 -65 -16 -51 -5 -141 -34 -141 -45 0 -6 -6
-10 -12 -10 -7 0 -26 -7 -43 -16 -16 -8 -37 -13 -47 -11 -10 3 -21 1 -24 -4
-9 -15 -86 -49 -111 -49 -13 0 -23 -4 -23 -9 0 -5 -10 -11 -22 -13 -13 -2 -29
-15 -36 -30 -7 -16 -18 -28 -24 -28 -5 0 -8 -7 -5 -15 4 -8 2 -17 -3 -20 -6
-4 -10 -17 -10 -31 0 -13 -4 -24 -10 -24 -5 0 -10 -7 -10 -16 0 -10 -6 -14
-15 -11 -8 4 -17 1 -21 -5 -4 -6 -26 -8 -53 -6 -25 3 -38 3 -28 1 29 -7 19
-23 -15 -24 -18 0 -27 -3 -20 -6 6 -2 12 -16 12 -30 0 -20 -3 -23 -13 -15 -7
6 -23 9 -35 5 -18 -4 -21 -10 -16 -32 5 -21 4 -24 -7 -14 -19 18 -49 16 -49
-3 0 -10 -6 -14 -14 -11 -8 3 -22 -3 -31 -13 -10 -11 -37 -22 -64 -25 -25 -4
-53 -9 -61 -11 -8 -3 -15 -4 -15 -2 -1 2 -14 -5 -29 -15 -18 -12 -32 -15 -38
-9 -10 10 -77 -17 -78 -32 0 -5 19 -5 43 -1 23 5 56 9 73 10 17 1 36 5 42 9 7
4 12 4 12 -1 0 -4 4 -3 8 4 4 6 30 13 57 14 28 1 57 6 65 9 35 17 84 29 92 24
5 -3 15 -1 22 5 11 9 67 16 104 12 17 -2 15 -66 -3 -81 -8 -7 -15 -8 -15 -3 0
5 -13 10 -30 10 -16 0 -30 -4 -30 -9 0 -4 -9 -8 -21 -8 -11 0 -27 -7 -35 -15
-9 -8 -24 -15 -35 -15 -11 0 -27 -7 -35 -15 -11 -11 -20 -12 -34 -5 -10 5 -32
11 -49 12 -17 1 -31 8 -31 15 0 7 -4 13 -10 13 -11 0 -1 -31 14 -43 8 -6 7
-10 -2 -14 -6 -2 -12 -11 -12 -18 0 -23 -20 -28 -41 -9 -18 16 -19 16 -19 -9
0 -19 -4 -25 -15 -21 -11 5 -15 -1 -15 -20 0 -17 -5 -26 -15 -26 -9 0 -18 -7
-21 -15 -4 -11 -12 -4 -25 22 -21 41 -16 59 8 28 8 -11 13 -13 9 -5 -3 8 -9
23 -12 33 -8 21 -24 23 -24 2 0 -8 -4 -15 -8 -15 -5 0 -17 -16 -28 -35 -12
-23 -21 -30 -26 -22 -6 9 -11 8 -19 -3 -8 -11 -12 -12 -16 -2 -2 6 -9 12 -14
12 -5 0 -9 -403 -9 -1005 l0 -1005 3830 0 3830 0 0 5105 0 5105 -3830 0 -3830
0 0 -3954z m4570 2179 c188 -12 215 -20 412 -121 26 -14 49 -28 52 -33 5 -7
129 -70 211 -106 17 -8 77 -36 135 -64 57 -28 114 -51 125 -51 11 0 29 -6 40
-14 11 -7 45 -16 75 -20 89 -12 192 -67 266 -143 35 -36 64 -72 64 -79 0 -7 8
-18 19 -23 10 -6 22 -22 25 -36 4 -14 11 -25 16 -25 6 0 10 -9 10 -20 0 -11 4
-20 9 -20 5 0 11 -8 15 -17 3 -10 15 -31 26 -48 11 -16 23 -38 26 -47 4 -10
10 -18 15 -18 5 0 9 -9 9 -19 0 -11 4 -22 9 -26 11 -6 53 -93 101 -210 13 -29
47 -312 42 -345 -1 -8 3 -55 9 -103 6 -48 8 -96 4 -105 -6 -15 -9 -14 -26 7
-10 13 -19 34 -19 46 0 15 -8 26 -21 30 -11 4 -25 19 -30 33 -11 29 -83 68
-174 95 -29 8 -50 20 -50 28 0 8 -10 24 -23 37 -12 12 -22 26 -22 30 0 4 -15
12 -32 17 -23 7 -32 15 -30 28 2 10 -3 17 -13 17 -9 0 -13 5 -10 10 3 6 -5 10
-19 10 -14 0 -28 5 -31 10 -4 6 -25 8 -52 5 -35 -4 -51 -1 -73 15 -15 11 -35
17 -43 14 -9 -3 -27 2 -42 12 -26 17 -149 25 -172 11 -9 -5 -53 -14 -155 -31
-102 -17 -117 -29 -125 -101 -4 -42 -13 -144 -15 -178 -1 -33 20 -51 39 -35 7
5 21 7 30 3 15 -6 11 -10 -17 -19 -27 -10 -36 -19 -38 -39 -4 -29 -22 -38 -22
-10 0 15 -2 14 -14 -2 -8 -11 -12 -23 -9 -28 2 -4 -3 -19 -11 -33 -12 -17 -14
-30 -7 -42 5 -9 12 -33 15 -52 9 -59 42 -162 81 -261 21 -52 48 -127 61 -167
30 -95 84 -178 146 -222 27 -19 62 -47 79 -62 17 -14 44 -32 60 -38 16 -7 29
-17 29 -22 0 -5 4 -7 10 -3 5 3 17 1 27 -4 46 -24 251 -37 271 -17 3 3 14 6
24 6 11 0 16 5 13 10 -3 6 3 10 14 10 12 0 21 6 21 14 0 19 54 27 107 16 55
-13 68 -4 78 48 4 20 11 42 16 48 5 6 9 39 10 72 1 34 5 62 9 62 3 0 5 14 2
30 -3 18 0 30 7 30 18 0 12 29 -14 68 -16 24 -21 40 -15 46 13 13 13 29 0 21
-6 -3 -12 0 -14 7 -17 56 -16 55 -35 29 -12 -16 -23 -21 -32 -16 -11 6 -12 5
-1 -6 6 -7 12 -17 12 -21 0 -13 -38 -9 -47 6 -4 7 -23 21 -41 30 -18 9 -36 24
-39 32 -7 20 -21 17 -28 -6 -4 -14 3 -31 24 -57 17 -21 31 -43 31 -49 0 -7 6
-14 13 -17 6 -2 9 -8 5 -12 -4 -4 -17 2 -29 14 -13 12 -28 21 -35 21 -6 0 -14
7 -18 15 -3 8 -16 15 -30 15 -14 0 -27 4 -30 9 -3 5 -21 12 -40 15 -37 7 -50
19 -58 52 -10 38 3 44 72 34 35 -5 68 -6 73 -3 5 3 -10 16 -32 30 -30 17 -41
31 -41 48 0 13 -4 26 -10 30 -5 3 -6 13 -3 21 4 11 14 14 34 10 39 -7 44 7 8
23 -23 10 -33 10 -44 1 -18 -15 -20 1 -3 18 10 10 10 15 -2 22 -12 8 -12 10 5
11 11 1 24 1 29 0 5 -1 4 5 -4 13 -10 13 -10 19 -1 30 10 12 7 14 -22 11 -19
-1 -41 1 -48 6 -10 6 -2 9 23 9 36 0 38 2 49 45 6 25 13 45 14 45 18 0 33 -15
28 -27 -5 -12 -2 -13 13 -6 29 16 76 25 70 15 -8 -13 29 -24 85 -27 59 -3 69
-9 69 -47 0 -22 10 -39 34 -62 34 -31 52 -68 48 -97 -2 -9 4 -22 13 -29 8 -7
13 -16 10 -20 -3 -5 -1 -11 4 -15 6 -3 8 -12 4 -20 -3 -8 0 -15 6 -15 7 0 9
-14 6 -39 -3 -25 -1 -43 7 -47 6 -4 14 -2 16 4 2 7 8 10 13 6 5 -3 9 0 9 5 0
6 -5 11 -10 11 -7 0 -6 8 2 23 17 31 17 67 -1 67 -11 0 -10 5 5 22 10 12 13
18 5 13 -11 -6 -13 -4 -7 11 5 10 9 25 9 32 0 14 13 16 21 3 4 -5 0 -12 -6
-14 -9 -4 -10 -8 -2 -14 14 -10 16 -409 2 -503 -14 -104 -16 -122 -22 -180 -4
-30 -11 -183 -17 -340 -5 -157 -17 -325 -25 -375 -8 -49 -19 -155 -25 -235 -6
-80 -14 -154 -19 -165 -5 -11 -14 -39 -20 -62 -8 -31 -16 -43 -29 -43 -26 0
-44 -25 -36 -50 4 -13 0 -31 -9 -45 -9 -13 -16 -35 -16 -49 0 -13 -12 -38 -27
-55 l-27 -31 -19 43 -18 42 5 -80 c6 -92 -4 -122 -28 -90 -15 19 -21 50 -18
88 1 10 -5 30 -13 45 -14 26 -14 26 -15 -31 0 -32 -4 -56 -9 -53 -12 8 -22
-20 -15 -39 4 -8 1 -15 -5 -15 -6 0 -11 -6 -11 -13 0 -16 -34 -50 -41 -42 -3
2 -11 -18 -18 -45 -10 -40 -10 -54 -1 -65 7 -8 8 -15 3 -15 -5 0 -15 10 -23
22 -8 12 -26 33 -39 47 -22 22 -22 25 -7 37 12 9 14 14 5 19 -17 11 -26 -10
-33 -75 -5 -46 -10 -57 -24 -56 -11 1 -18 -8 -20 -24 -2 -14 -15 -35 -29 -47
-35 -29 -25 -53 22 -53 30 0 35 -3 35 -24 0 -13 -7 -26 -15 -30 -9 -3 -15 -18
-15 -38 -1 -31 -1 -32 -15 -14 -14 19 -15 18 -15 -16 0 -40 -19 -54 -51 -37
-14 7 -24 7 -32 0 -9 -7 -12 2 -11 37 1 26 -3 50 -9 54 -6 3 -10 21 -9 40 1
40 -16 78 -35 78 -9 0 -13 7 -11 18 2 9 11 16 20 14 28 -4 29 15 3 36 -14 11
-25 24 -23 29 1 4 -2 23 -6 40 -9 38 0 73 19 73 8 0 16 18 20 50 6 43 4 53
-19 83 -29 38 -36 68 -11 47 8 -7 15 -9 15 -5 0 15 -33 75 -41 75 -5 0 -9 7
-9 15 0 20 10 19 25 -2 15 -21 38 -7 32 19 -4 14 -2 18 9 14 9 -4 14 1 14 15
0 12 8 23 20 26 13 3 20 14 20 29 0 25 -19 74 -29 74 -3 0 -16 -16 -29 -35
-18 -29 -20 -39 -11 -56 7 -14 8 -24 1 -31 -13 -13 -46 47 -36 63 4 6 1 15 -7
19 -10 7 -10 11 1 25 11 13 10 19 -10 40 -30 32 -36 31 -43 -2 -6 -33 2 -51
14 -32 6 10 8 5 7 -14 -1 -15 -7 -26 -13 -24 -20 8 -55 -12 -49 -28 5 -13 3
-13 -22 0 -16 8 -37 15 -46 15 -10 0 -31 19 -47 43 -64 91 -88 120 -146 177
-33 33 -65 60 -71 60 -6 0 -18 8 -28 19 -9 10 -34 26 -56 36 -22 10 -40 22
-40 27 0 4 -7 8 -15 8 -8 0 -15 4 -15 10 0 5 -15 10 -32 9 -18 -1 -69 2 -113
6 -68 6 -85 12 -110 35 -35 32 -62 43 -71 29 -4 -6 -11 -6 -19 1 -8 7 -19 9
-25 5 -6 -4 -26 0 -44 9 -31 14 -36 14 -67 -1 -19 -10 -57 -18 -86 -19 -100
-4 -192 -25 -225 -52 -10 -8 -24 -12 -32 -9 -24 9 -185 -61 -227 -99 -13 -12
-28 -15 -50 -10 -23 4 -38 1 -51 -11 -17 -15 -20 -15 -28 -3 -13 20 -12 30 0
30 6 0 10 5 10 10 0 15 -47 12 -53 -2 -4 -10 -7 -10 -18 0 -7 6 -17 12 -21 12
-4 0 -8 -6 -8 -12 -1 -18 -41 -64 -62 -71 -11 -4 -18 -17 -18 -32 0 -17 -5
-25 -18 -25 -29 0 -55 -40 -58 -89 -1 -25 -7 -57 -12 -71 -5 -14 -6 -26 -1
-28 18 -7 8 -20 -12 -15 -15 4 -22 0 -26 -16 -3 -11 -11 -21 -18 -21 -8 0 -16
-9 -20 -19 -3 -11 -24 -37 -45 -59 -22 -22 -40 -44 -40 -50 0 -5 -6 -12 -13
-15 -7 -2 -25 -30 -40 -61 -26 -53 -35 -61 -65 -57 -9 2 -11 -9 -6 -39 4 -25
3 -40 -4 -40 -18 0 -43 62 -37 91 4 19 1 28 -11 33 -11 4 -14 13 -10 29 3 12
1 29 -4 37 -10 16 -12 15 -28 -22 -9 -22 -8 -30 3 -42 8 -8 15 -21 15 -28 -1
-9 -5 -7 -14 5 -18 24 -35 21 -46 -8 -5 -14 -14 -25 -20 -25 -15 0 -12 26 5
40 8 7 15 21 15 31 0 10 5 21 10 24 6 3 10 15 10 26 0 10 5 19 10 19 6 0 10 5
10 11 0 6 -6 9 -12 6 -7 -2 -18 3 -25 12 -9 11 -12 12 -13 3 0 -16 -44 -33
-93 -36 -30 -2 -40 3 -53 22 -18 27 -14 35 21 39 17 3 25 -1 25 -12 0 -18 31
-20 48 -3 9 9 12 9 12 -2 0 -7 2 -11 5 -8 3 3 1 17 -4 31 -10 27 -4 67 10 67
5 0 7 -15 4 -32 -4 -29 -4 -31 9 -15 7 9 21 17 31 17 14 0 16 5 10 28 -5 15
-8 36 -7 47 0 11 -2 37 -5 58 -4 31 -7 36 -19 26 -17 -14 -20 -6 -29 84 -4 43
-11 67 -18 65 -16 -3 -57 33 -57 51 0 11 3 11 18 -2 27 -25 32 -21 28 21 -2
20 -4 54 -5 75 -1 30 -5 37 -21 37 -14 0 -20 -7 -20 -24 0 -41 -10 -58 -26
-45 -11 9 -14 5 -14 -22 0 -43 -10 -79 -21 -79 -5 0 -19 -10 -30 -21 -17 -17
-24 -41 -31 -106 -5 -46 -8 -101 -6 -121 l3 -37 17 35 c10 19 17 50 16 68 -1
18 4 38 11 45 10 9 12 2 9 -33 -2 -25 -8 -51 -12 -58 -5 -8 -4 -18 2 -24 8 -8
15 -1 26 23 l16 34 -6 -35 c-3 -19 -7 -57 -9 -84 -5 -52 -19 -78 -39 -70 -10
4 -11 -7 -5 -48 11 -75 11 -94 0 -83 -5 6 -11 26 -13 45 -2 25 -10 38 -28 47
-14 7 -20 13 -15 13 6 0 11 9 12 20 2 28 -15 25 -23 -4 -3 -14 1 -37 10 -55
15 -29 15 -34 0 -63 -16 -32 -17 -32 -25 -10 -15 40 -29 24 -29 -34 0 -34 -4
-53 -10 -49 -5 3 -10 1 -10 -5 0 -7 -8 -9 -19 -5 -11 3 -22 1 -26 -5 -11 -18
-22 -11 -39 25 -11 23 -21 32 -32 28 -9 -3 -12 -12 -9 -24 4 -10 2 -26 -3 -34
-7 -14 -10 -14 -21 -2 -13 16 -5 67 10 67 5 0 9 5 9 11 0 5 -5 7 -12 3 -8 -5
-9 -2 -5 10 7 18 -8 56 -22 56 -17 0 -17 -86 0 -150 9 -36 23 -90 29 -120 6
-30 19 -70 27 -89 9 -19 19 -60 22 -90 4 -31 15 -68 24 -82 23 -35 51 -133 39
-137 -14 -4 -2 -52 14 -52 22 0 27 -21 8 -34 -10 -8 -14 -18 -9 -26 6 -9 10
-8 18 6 9 16 12 12 23 -30 7 -26 10 -63 7 -82 -4 -27 -2 -34 10 -34 23 0 40
-36 28 -58 -9 -15 -10 -14 -11 7 0 13 -3 22 -6 18 -9 -8 5 -59 14 -53 4 2 15
-2 26 -9 14 -10 16 -21 11 -44 -8 -37 31 -113 46 -89 6 8 9 0 9 -24 0 -45 14
-50 28 -10 l10 27 1 -28 c1 -15 -4 -36 -10 -46 -13 -20 -4 -71 12 -71 6 0 8 8
4 19 -3 10 0 23 7 29 10 8 14 -1 16 -41 3 -52 21 -102 22 -62 1 19 1 19 14 3
19 -25 27 -22 20 6 -4 18 0 28 17 40 25 17 39 8 39 -26 0 -24 42 -71 50 -57 4
5 18 7 32 4 19 -5 27 -17 38 -58 10 -37 15 -45 18 -29 2 12 7 20 12 17 5 -3 6
-22 3 -42 -4 -26 -3 -34 5 -29 7 4 12 16 12 27 0 10 4 19 9 19 4 0 6 -12 4
-28 -4 -21 -2 -24 6 -12 17 24 13 66 -9 81 -10 8 -22 26 -26 41 -5 22 -3 28
11 28 13 0 16 6 11 24 -3 14 -2 27 4 31 9 5 12 -4 26 -72 7 -35 26 -27 22 9
-5 46 18 46 26 -1 3 -22 11 -43 17 -46 13 -9 15 -6 23 31 5 23 2 36 -10 49
-14 14 -15 18 -3 25 18 12 50 -17 42 -38 -4 -9 -2 -13 4 -9 5 3 15 -16 22 -43
8 -31 18 -50 27 -50 21 0 28 25 16 60 -6 16 -7 30 -2 30 10 0 30 -56 30 -86 0
-35 18 -38 25 -4 4 17 15 35 25 40 10 5 21 23 25 40 7 34 12 36 40 14 19 -14
19 -16 2 -25 -17 -10 -16 -12 7 -30 13 -10 31 -16 39 -13 19 7 28 -42 13 -68
-20 -34 4 -30 38 7 25 26 42 36 55 32 23 -6 61 22 61 45 0 7 8 14 18 15 24 2
22 -35 -3 -53 -10 -8 -15 -14 -11 -14 5 0 3 -7 -4 -15 -11 -13 -8 -15 14 -15
16 0 26 5 26 15 0 18 4 18 58 0 38 -13 50 -14 98 -1 33 9 54 10 54 4 0 -5 -9
-12 -20 -15 -11 -3 -17 -9 -14 -14 3 -5 -4 -9 -14 -9 -20 0 -36 -23 -25 -34 4
-3 19 -6 35 -6 15 0 28 -4 28 -10 0 -15 73 -31 85 -18 7 8 6 9 -2 4 -13 -7
-63 13 -63 25 0 4 -14 10 -31 14 l-31 7 22 15 c13 9 37 15 54 15 17 -1 50 6
73 15 30 11 53 13 80 8 21 -5 43 -9 48 -10 6 -1 12 -3 15 -4 8 -4 42 -11 88
-17 32 -5 42 -3 42 7 0 8 11 1 25 -15 14 -16 25 -25 25 -20 0 5 26 11 57 12
32 2 61 8 64 14 4 7 9 7 13 -1 4 -6 -1 -14 -11 -17 -10 -3 -26 -10 -35 -15
-10 -5 -24 -6 -32 -3 -8 3 -17 1 -21 -5 -3 -6 -14 -11 -24 -11 -10 0 -24 -6
-30 -14 -9 -11 -3 -14 31 -19 38 -6 46 -3 64 19 19 23 22 24 28 8 4 -11 -1
-22 -14 -31 -12 -8 -19 -21 -16 -29 3 -8 -11 -21 -39 -35 -25 -13 -45 -25 -45
-29 0 -3 -14 -21 -31 -39 -24 -27 -29 -39 -24 -60 9 -35 15 -39 27 -18 7 14
13 15 23 7 9 -8 17 -7 27 3 19 20 58 31 58 17 0 -6 -9 -20 -20 -32 -11 -12
-20 -26 -20 -31 0 -16 25 -1 35 21 5 12 14 22 20 22 6 0 16 14 24 31 7 16 15
28 18 25 2 -2 -1 -14 -7 -26 -6 -12 -9 -24 -6 -27 7 -7 55 30 61 48 3 10 18
16 41 17 51 2 74 11 74 28 0 19 -19 18 -26 -1 -4 -8 -10 -13 -15 -10 -25 16
22 53 81 62 14 2 35 13 46 24 12 12 25 16 28 11 3 -5 -1 -15 -9 -22 -9 -8 -15
-30 -15 -56 0 -28 -5 -44 -12 -45 -7 0 -4 -4 7 -8 11 -5 25 -4 32 1 7 5 17 7
24 3 6 -4 15 -1 20 6 4 8 14 14 21 15 7 0 21 2 30 2 9 1 19 10 21 19 4 15 5
15 6 -2 0 -11 -6 -33 -14 -49 -8 -15 -15 -32 -15 -37 0 -9 -54 -122 -86 -178
-10 -18 -36 -51 -56 -72 -21 -22 -33 -39 -28 -39 6 0 10 -4 10 -10 0 -5 -8
-10 -17 -10 -15 0 -16 -2 -3 -10 8 -5 10 -10 4 -10 -6 0 -20 -17 -32 -37 -11
-21 -30 -44 -41 -52 -11 -8 -18 -18 -16 -21 3 -4 -9 -19 -25 -34 -17 -14 -30
-33 -30 -41 0 -8 -7 -15 -15 -15 -8 0 -15 -9 -15 -20 0 -12 -5 -17 -13 -14 -8
3 -25 -12 -42 -37 -31 -48 -136 -155 -147 -151 -5 1 -8 -5 -8 -13 0 -8 -9 -19
-20 -25 -11 -6 -20 -15 -20 -20 0 -16 -39 -50 -56 -50 -9 0 -18 -8 -20 -18
-11 -39 -102 -79 -119 -52 -9 14 -53 12 -58 -2 -3 -10 -7 -10 -20 1 -14 11
-20 11 -32 1 -8 -7 -15 -19 -15 -26 0 -8 -16 -16 -41 -20 -27 -5 -43 -13 -46
-24 -3 -13 -19 -20 -54 -24 -50 -7 -107 -45 -80 -54 9 -3 9 -7 0 -19 -9 -10
-10 -16 -2 -21 7 -4 13 -21 15 -37 3 -26 0 -30 -25 -33 -28 -3 -67 -33 -67
-51 0 -33 -72 -46 -169 -30 -46 7 -57 6 -73 -8 -18 -16 -19 -16 -25 5 -5 23
-38 31 -45 11 -2 -7 -12 -7 -31 0 -15 6 -34 8 -42 5 -8 -4 -22 -1 -30 6 -8 6
-18 9 -23 6 -6 -3 -12 4 -16 17 -5 18 -8 20 -16 7 -8 -13 -10 -12 -10 2 0 18
-6 26 -75 98 l-33 35 14 55 c15 54 11 110 -7 110 -6 0 -8 4 -4 9 7 12 -24 91
-36 91 -5 0 -9 -12 -10 -27 l-1 -28 -12 28 c-7 15 -15 24 -19 21 -4 -4 -10 2
-13 12 -4 10 -14 27 -22 36 -10 12 -12 28 -8 50 6 31 3 35 -34 58 -22 14 -43
33 -46 42 -3 10 -11 15 -20 11 -9 -3 -14 2 -14 15 0 11 6 23 13 25 6 3 1 6
-14 6 -14 1 -30 -4 -36 -10 -8 -8 -14 -5 -24 12 -6 13 -18 28 -26 32 -7 5 -11
12 -8 16 2 5 -2 14 -9 21 -8 6 -18 25 -21 41 -4 16 -11 29 -16 29 -5 0 -9 9
-9 19 0 11 -4 23 -10 26 -5 3 -10 15 -10 26 0 10 -3 19 -7 19 -5 0 -24 30 -43
68 -19 37 -37 69 -40 72 -16 16 -50 71 -50 80 0 11 -84 175 -100 195 -5 6 -16
30 -25 55 -9 25 -20 54 -25 65 -13 32 -29 122 -40 225 -13 111 -12 436 0 501
5 24 14 222 20 439 12 380 8 612 -11 641 -7 12 -16 10 -50 -9 -85 -49 -195
-37 -281 30 -72 57 -187 232 -227 348 -30 87 -61 276 -61 376 0 106 29 231 75
327 64 131 118 170 231 171 64 1 76 -2 125 -34 62 -40 111 -47 117 -15 7 37
20 44 53 31 31 -11 31 -11 24 -66 -4 -30 -9 -106 -10 -168 -2 -62 -5 -115 -7
-118 -3 -2 -17 0 -32 5 -28 11 -31 6 -26 -46 1 -13 -3 -23 -9 -23 -6 0 -11 5
-11 10 0 20 -19 9 -22 -12 -2 -12 -20 -34 -42 -49 -21 -14 -46 -39 -54 -55 -8
-16 -32 -45 -53 -65 -22 -20 -39 -41 -39 -47 0 -7 -5 -12 -11 -12 -7 0 -27 -9
-46 -21 -25 -16 -31 -24 -23 -33 5 -7 7 -15 4 -18 -20 -21 104 -138 147 -138
12 0 40 -19 65 -44 24 -25 53 -47 64 -51 14 -4 19 -12 16 -22 -3 -8 -6 -18 -6
-22 0 -26 -107 -34 -135 -11 -10 9 -16 7 -23 -7 -5 -10 -7 -24 -5 -30 5 -14
86 -53 109 -53 26 0 83 33 87 51 6 24 43 25 52 2 4 -10 9 -44 10 -76 3 -44 9
-64 29 -88 22 -25 25 -37 20 -65 -5 -26 -2 -40 12 -56 14 -15 16 -22 7 -25 -7
-3 -13 -9 -13 -14 0 -6 4 -8 10 -4 5 3 18 0 29 -7 27 -16 37 -4 21 26 -8 15
-10 38 -6 60 4 20 3 36 -1 36 -4 0 -13 11 -19 25 -9 18 -9 30 2 51 15 28 11
44 -12 44 -8 0 -14 7 -14 15 0 8 5 15 10 15 12 0 1 83 -11 88 -10 4 10 62 22
62 5 0 9 -9 9 -20 0 -21 10 -24 45 -14 17 4 20 13 18 57 0 29 -2 55 -2 60 -2
12 -29 8 -34 -5 -2 -7 -8 -9 -13 -5 -5 4 -3 12 4 16 7 4 10 15 6 24 -3 9 -2
17 3 17 5 0 8 14 5 30 -4 29 11 42 21 18 4 -10 8 -10 16 1 6 10 6 21 0 34 -8
14 -6 23 7 38 21 24 10 52 -23 57 -18 3 -20 10 -18 60 1 31 3 57 4 57 10 0 8
78 -3 120 -8 30 -11 56 -8 59 3 3 -2 6 -11 6 -10 0 -17 4 -17 8 0 19 26 62 38
62 6 0 12 5 12 10 0 6 -9 10 -19 10 -20 0 -61 70 -61 102 0 9 -6 18 -13 21
-11 4 -13 28 -10 104 2 54 7 109 10 123 9 35 12 56 19 120 3 30 12 62 18 70
22 26 58 128 51 141 -4 6 -4 14 1 18 12 8 39 99 54 176 6 33 16 85 22 115 5
30 19 78 30 106 10 28 20 61 21 73 1 13 13 29 28 38 26 15 38 43 54 121 4 17
10 32 14 32 9 0 61 74 73 103 4 9 12 17 18 17 5 0 10 7 10 15 0 8 11 22 25 31
14 9 23 19 21 22 -6 5 30 78 42 86 5 3 15 26 22 51 7 25 17 48 21 51 5 3 9 14
9 25 0 11 9 39 20 61 11 23 20 48 20 55 0 8 7 25 16 39 9 13 14 27 10 31 -3 3
-1 12 4 19 6 6 11 33 12 58 0 25 4 46 9 46 5 0 9 -6 9 -12 0 -7 7 -2 16 10 8
12 12 27 9 32 -3 6 3 10 15 10 17 0 19 3 11 19 -8 14 -7 22 5 32 8 7 13 21 10
32 -6 24 3 49 15 41 5 -3 9 4 9 15 0 51 64 147 164 246 56 55 115 107 131 115
17 8 56 31 87 52 71 47 260 139 354 171 130 45 253 68 399 76 77 3 145 3 150
0 6 -4 53 -10 105 -14z m-2214 -3320 c-11 -16 -12 -32 -6 -59 10 -44 0 -52
-41 -32 l-30 15 6 -31 c5 -20 4 -28 -3 -24 -6 4 -16 -2 -22 -11 -8 -13 -13
-14 -16 -5 -3 6 -14 12 -24 12 -10 0 -31 7 -46 15 -26 13 -26 15 -7 15 12 0
23 4 25 9 2 5 12 11 23 13 34 5 55 42 56 95 1 79 12 119 44 155 17 18 35 42
40 53 7 14 11 -11 13 -89 2 -82 -1 -114 -12 -131z m2217 -395 c5 -18 11 -20
49 -14 23 3 52 12 64 19 21 13 49 6 42 -11 -1 -5 8 -11 22 -14 14 -3 43 -14
65 -25 22 -10 48 -17 58 -16 10 1 24 -3 32 -9 8 -7 18 -9 24 -6 13 8 70 -47
74 -72 3 -21 30 -52 45 -52 4 0 19 -11 32 -25 12 -13 25 -24 29 -23 16 3 92
-16 97 -23 3 -5 14 -9 25 -9 10 0 19 -7 19 -15 0 -8 3 -15 8 -15 4 0 17 -21
29 -47 17 -39 20 -62 17 -117 -3 -38 -9 -76 -14 -86 -5 -9 -10 -37 -12 -62 -2
-34 -6 -44 -17 -40 -10 4 -13 0 -9 -14 4 -15 -2 -24 -23 -33 -24 -10 -27 -17
-23 -41 5 -23 2 -29 -16 -35 -13 -4 -19 -12 -16 -21 3 -8 9 -21 12 -29 3 -8 1
-15 -5 -15 -6 0 -16 -11 -21 -25 -5 -14 -15 -25 -21 -25 -6 0 -9 -9 -6 -20 6
-24 -20 -28 -29 -5 -9 22 -24 18 -24 -6 0 -17 -3 -19 -14 -10 -11 9 -16 6 -24
-18 -8 -22 -15 -28 -30 -24 -12 3 -22 -1 -26 -12 -3 -9 -10 -14 -15 -11 -5 3
-12 -6 -15 -20 -5 -18 -12 -24 -22 -20 -8 3 -17 -1 -20 -9 -4 -8 -12 -15 -20
-15 -8 0 -14 -6 -14 -14 0 -18 -42 -29 -52 -13 -5 8 -8 4 -8 -10 0 -12 4 -23
9 -25 4 -1 11 -14 15 -28 5 -17 4 -21 -2 -12 -7 11 -11 7 -16 -13 -6 -22 -9
-25 -21 -15 -8 7 -15 23 -15 36 0 18 4 22 18 17 15 -6 15 -5 3 10 -7 9 -17 14
-22 11 -5 -3 -9 1 -9 8 0 9 -3 9 -10 -2 -5 -8 -10 -28 -10 -45 0 -21 -3 -26
-11 -18 -9 9 -17 7 -31 -7 -12 -11 -31 -17 -47 -15 -22 2 -26 7 -25 34 2 37
-3 40 -16 9 l-9 -23 0 24 c-1 15 -6 21 -14 18 -9 -3 -22 11 -35 39 -20 40 -42
58 -42 34 0 -5 5 -10 10 -10 6 0 10 -10 10 -22 -1 -21 -2 -21 -13 -6 -9 11
-18 14 -27 8 -18 -11 -30 -3 -30 21 0 10 -4 19 -10 19 -13 0 -13 5 5 -81 16
-76 14 -95 -5 -59 -11 21 -12 21 -26 3 -12 -16 -13 -9 -9 55 4 51 3 72 -4 67
-6 -3 -12 -16 -12 -28 -1 -20 -2 -21 -6 -2 -3 11 -12 28 -21 38 -9 10 -17 30
-18 45 -1 15 -2 29 -3 32 -2 8 -31 -51 -31 -65 0 -6 -9 -20 -20 -30 -11 -10
-20 -28 -21 -39 -1 -18 -2 -18 -8 4 -7 24 -7 24 -19 5 -6 -11 -12 -14 -12 -7
0 6 -9 12 -19 12 -16 0 -18 5 -14 39 3 23 1 41 -6 45 -6 4 -11 2 -11 -4 0 -7
-7 -10 -15 -6 -8 3 -14 2 -12 -2 1 -4 -13 -22 -30 -39 -28 -27 -33 -29 -33
-13 0 10 9 22 20 25 12 4 23 18 27 36 3 16 9 26 14 23 17 -10 9 7 -16 34 -20
21 -25 23 -25 9 0 -22 -16 -22 -28 -1 -10 19 -32 11 -32 -12 0 -17 -12 -18
-27 -3 -8 8 -20 5 -45 -13 -36 -27 -68 -26 -68 0 0 9 -3 27 -6 38 -5 18 -1 22
23 22 15 0 31 -5 35 -12 5 -8 11 -7 20 2 9 9 9 12 0 12 -7 0 -12 9 -12 19 0
26 -10 51 -21 51 -5 0 -9 -7 -9 -15 0 -8 -5 -15 -10 -15 -6 0 -8 11 -4 25 7
30 -6 33 -24 5 -7 -11 -17 -20 -22 -20 -14 0 -12 28 3 33 8 3 3 11 -13 24 -18
16 -24 31 -25 59 0 37 -1 39 -30 35 -16 -1 -33 -8 -36 -13 -9 -14 -29 -1 -29
18 0 10 -9 14 -27 12 -24 -3 -28 1 -28 22 0 29 -13 42 -36 34 -9 -2 -19 2 -23
11 -3 8 -17 15 -31 15 -16 0 -25 6 -25 16 0 10 8 15 23 14 28 -3 67 10 67 21
0 5 7 9 15 9 11 0 13 8 8 31 -5 26 -2 35 17 49 l23 18 -28 0 c-31 0 -74 -41
-75 -70 0 -19 -20 -26 -20 -8 0 6 -7 10 -15 10 -22 0 -19 43 4 64 22 20 18 42
-10 51 -12 4 -19 16 -19 30 0 13 -4 26 -8 29 -5 3 -7 18 -4 34 2 16 -1 33 -7
36 -6 4 -11 0 -11 -8 0 -9 -4 -16 -10 -16 -13 0 -13 13 1 43 9 21 8 28 -10 46
-11 11 -31 22 -45 24 -29 3 -47 17 -23 17 11 0 14 5 10 16 -5 14 -1 16 21 12
14 -3 29 -1 32 3 3 5 14 9 25 9 10 0 19 5 19 10 0 6 8 14 18 17 9 4 29 16 44
27 32 22 67 28 86 14 8 -7 12 -7 12 0 0 5 20 13 45 16 24 4 47 11 50 16 6 9
84 -8 104 -24 8 -6 24 -9 37 -8 12 2 76 -2 141 -8 65 -6 168 -12 230 -13 61
-1 115 -6 119 -10 4 -4 37 -7 73 -7 51 0 74 5 101 22 34 22 35 22 10 26 -14 2
-28 9 -31 14 -4 5 -18 11 -33 11 -14 1 -26 5 -26 10 0 4 -7 7 -16 7 -11 0 -14
5 -10 16 3 9 6 20 6 25 0 17 18 9 23 -11z m1128 -2082 c14 -7 39 -23 56 -36
18 -12 47 -28 65 -34 18 -6 67 -35 108 -63 95 -66 205 -119 323 -156 162 -50
434 -146 494 -175 69 -33 176 -72 218 -79 17 -3 35 -13 42 -21 6 -8 17 -14 25
-13 23 5 117 -11 123 -21 3 -6 21 -10 40 -10 41 0 55 -17 21 -26 -22 -5 -23
-8 -11 -20 17 -17 36 -18 32 -1 -3 19 68 21 105 3 17 -9 39 -16 49 -16 30 0
71 -22 57 -31 -7 -4 -13 -18 -13 -31 0 -21 -4 -23 -45 -20 -42 3 -44 2 -25
-12 19 -15 19 -15 -7 -16 -34 0 -47 -19 -19 -27 12 -3 21 -12 21 -21 0 -20 29
-41 58 -42 22 0 30 -14 12 -25 -5 -3 -7 -12 -3 -20 6 -17 -12 -21 -22 -5 -9
15 -25 12 -25 -5 0 -9 -6 -18 -13 -21 -15 -5 -19 -34 -5 -34 5 0 7 -4 3 -9 -3
-5 4 -16 16 -25 20 -13 20 -17 8 -45 -13 -30 -29 -41 -29 -22 0 5 -3 16 -6 25
-4 11 -1 16 10 16 21 0 20 16 -1 24 -10 3 -25 9 -33 12 -12 4 -12 4 -1 -4 14
-10 7 -32 -10 -32 -6 0 -7 5 -4 10 3 6 -3 10 -14 10 -12 0 -21 5 -21 11 0 6
-7 18 -16 26 -10 11 -13 25 -9 42 5 21 4 23 -6 14 -9 -9 -16 -10 -26 -2 -16
14 -17 1 -3 -35 5 -14 7 -33 3 -42 -5 -15 -8 -15 -17 -2 -6 8 -18 18 -26 21
-9 4 -6 5 8 3 23 -4 27 1 14 20 -12 18 -52 -2 -52 -26 0 -12 -5 -18 -10 -15
-6 4 -8 11 -5 16 4 5 -1 9 -9 9 -21 0 -20 -27 2 -39 14 -9 12 -10 -15 -11 -17
0 -34 -6 -36 -12 -4 -9 -6 -8 -6 2 -1 9 4 20 9 26 7 7 -1 10 -24 10 -20 0 -32
-4 -29 -10 4 -5 -1 -7 -10 -3 -10 3 -17 2 -17 -3 0 -19 -21 -10 -32 15 -6 14
-17 25 -25 25 -7 0 -13 5 -13 11 0 6 -9 1 -19 -12 -11 -13 -22 -22 -24 -19
-11 10 -16 99 -7 105 6 4 10 -7 10 -24 0 -26 4 -31 25 -31 22 0 30 11 27 41
-1 3 13 3 30 1 21 -3 29 -1 24 7 -4 6 -13 11 -21 11 -7 0 -15 6 -18 13 -2 8
-21 11 -51 10 -46 -1 -48 -1 -42 23 4 13 2 24 -3 24 -14 0 -33 -28 -27 -39 8
-12 -3 -41 -15 -41 -6 0 -5 9 1 20 6 11 7 20 2 20 -6 0 -12 9 -15 21 -3 12
-10 18 -17 14 -6 -4 -8 -15 -5 -25 3 -11 0 -20 -10 -24 -8 -3 -15 -13 -15 -21
0 -9 -4 -14 -9 -10 -5 3 -19 -7 -30 -21 -24 -31 -28 -15 -5 21 14 22 14 25 -4
43 -23 23 -62 19 -88 -9 -17 -19 -18 -18 -46 13 -24 27 -69 46 -68 29 1 -13
27 -40 34 -34 3 4 16 -4 27 -16 16 -17 18 -26 10 -34 -11 -11 -12 -9 -15 15 0
7 -10 14 -21 16 -11 2 -27 6 -35 9 -8 3 -19 5 -23 4 -5 -1 -6 7 -2 17 3 11 1
32 -5 47 -9 24 -14 27 -40 21 -20 -3 -30 -1 -30 6 0 18 -51 68 -70 68 -8 0
-26 18 -40 40 -27 44 -35 48 -48 25 -7 -14 -11 -13 -28 6 -17 21 -18 22 -1 16
23 -8 15 6 -27 50 -17 18 -39 33 -48 33 -22 0 -33 19 -19 33 17 17 13 27 -9
27 -11 0 -20 6 -20 13 0 8 -11 24 -25 37 -14 13 -25 29 -25 37 0 7 -6 13 -14
13 -19 0 -40 26 -26 35 15 9 12 25 -6 25 -8 0 -12 -4 -9 -10 3 -5 1 -10 -4
-10 -6 0 -11 7 -11 16 0 13 -7 15 -34 10 -26 -5 -35 -3 -40 10 -5 14 -1 16 31
11 44 -7 153 -31 203 -45 73 -20 358 -132 385 -151 6 -4 42 -20 80 -36 39 -15
85 -35 103 -43 18 -8 36 -12 39 -8 10 10 -18 31 -62 45 -22 7 -76 31 -120 53
-44 22 -100 48 -125 58 -25 10 -74 32 -110 48 -92 43 -344 124 -415 135 -48 6
-125 53 -147 89 -16 27 -28 36 -41 32 -11 -4 -16 -1 -15 7 2 7 -7 18 -19 24
-13 5 -23 15 -23 21 0 7 -9 14 -21 17 -21 6 -21 6 -2 31 21 30 23 30 54 14z"/>
<path d="M4185 7508 c-55 -4 -101 -13 -103 -18 -2 -6 -9 -10 -15 -10 -7 0 -28
-8 -47 -18 -19 -11 -64 -24 -100 -31 -36 -7 -81 -20 -100 -28 -19 -8 -48 -16
-65 -19 -16 -2 -65 -8 -108 -13 -86 -10 -202 -51 -235 -81 -12 -11 -27 -20
-34 -20 -18 0 -108 -86 -108 -103 0 -8 -9 -22 -20 -32 -12 -10 -31 -40 -43
-67 -12 -26 -25 -48 -30 -48 -4 0 -5 -11 -1 -25 3 -14 2 -25 -4 -25 -5 0 -15
-15 -23 -32 -7 -18 -23 -42 -35 -54 -15 -14 -21 -30 -18 -50 4 -39 -4 -64 -22
-64 -8 0 -14 -4 -14 -10 0 -5 5 -10 12 -10 6 0 4 -8 -7 -20 -9 -10 -15 -25
-12 -33 3 -7 -1 -24 -9 -38 -7 -13 -13 -36 -14 -51 0 -16 -4 -28 -8 -28 -13 0
-29 -55 -26 -86 4 -35 66 -97 89 -88 10 4 15 0 15 -10 0 -9 8 -16 18 -16 11 0
32 -7 48 -14 36 -18 136 -38 186 -37 20 1 39 -3 43 -9 3 -5 26 -10 50 -10 49
0 123 -16 170 -36 95 -40 303 -51 395 -20 124 42 214 88 265 135 22 20 57 48
77 62 21 13 38 27 38 31 0 4 13 14 29 22 68 35 241 219 241 256 0 6 14 29 30
52 17 22 30 49 30 60 0 10 7 21 15 24 8 4 15 12 15 20 0 8 4 14 9 14 5 0 12
15 16 33 4 17 19 42 33 54 27 23 27 23 4 23 -13 0 -20 4 -17 10 4 6 11 8 16 5
5 -4 9 5 9 19 0 14 4 28 10 31 13 8 8 54 -7 67 -7 6 -13 16 -13 23 0 7 -7 18
-15 25 -12 10 -13 16 -4 26 9 11 6 14 -14 14 -18 0 -26 7 -31 25 -4 14 -13 25
-20 25 -8 0 -17 7 -20 16 -4 10 -13 13 -25 9 -13 -4 -27 1 -40 14 -22 22 -56
28 -66 11 -10 -16 -25 -1 -25 26 0 13 -4 24 -10 24 -5 0 -10 7 -10 16 0 11 -6
13 -19 9 -13 -4 -24 1 -35 17 -11 16 -19 19 -27 11 -8 -8 -19 -6 -42 5 -18 9
-41 18 -51 19 -11 2 -27 10 -36 18 -9 8 -21 14 -26 14 -5 -1 -54 -6 -109 -11z
m-406 -374 c-13 -15 -11 -16 21 -10 73 15 110 15 110 2 0 -18 40 -13 51 7 5 9
16 14 24 10 12 -4 10 -12 -12 -38 -16 -17 -33 -40 -39 -51 -10 -15 -14 -17
-25 -6 -17 16 -29 15 -29 -3 0 -21 -20 -19 -21 3 0 10 -5 6 -11 -12 -8 -21 -7
-30 2 -36 8 -5 5 -9 -10 -13 -19 -5 -21 -2 -16 19 5 20 3 24 -15 24 -15 0 -19
5 -15 15 3 10 -1 18 -12 22 -22 9 -42 29 -42 42 0 6 -7 11 -15 11 -29 0 -15
19 18 23 17 2 36 5 41 5 5 1 2 -5 -5 -14z"/>
<path d="M4564 6075 c18 -13 17 -15 -12 -45 -17 -16 -40 -30 -51 -30 -11 0
-23 -5 -26 -10 -4 -6 -10 -8 -14 -6 -20 13 -110 -27 -146 -64 -38 -39 -39 -42
-40 -113 0 -64 -3 -74 -25 -94 -27 -24 -91 -26 -113 -4 -6 6 -17 11 -23 11 -7
0 -21 11 -32 25 l-20 25 -7 -41 c-11 -66 2 -128 31 -141 15 -7 24 -20 24 -35
0 -13 7 -26 15 -29 25 -10 17 -23 -17 -26 l-33 -3 2 -75 c3 -116 1 -110 34
-106 16 2 32 -1 35 -6 4 -6 20 -7 36 -4 31 6 68 -11 68 -31 0 -7 5 -13 11 -13
7 0 9 9 5 24 -5 20 -1 25 20 29 27 5 84 -12 84 -25 0 -17 18 -7 23 12 3 11 12
20 21 20 12 0 14 -7 10 -30 -6 -25 -3 -30 13 -30 21 0 46 -23 56 -51 4 -13 23
-16 99 -18 172 -3 224 3 239 30 5 10 15 19 21 19 15 0 58 48 58 66 0 8 9 22
20 31 11 10 20 30 20 45 0 21 5 28 19 28 11 0 21 -5 23 -11 2 -7 13 -9 25 -5
17 6 21 13 17 38 -4 33 -18 48 -46 48 -21 0 -30 14 -22 34 7 19 50 21 61 4 4
-7 17 -18 28 -24 16 -9 22 -8 32 5 9 13 14 14 24 4 18 -18 32 -16 25 2 -3 9 4
27 17 41 20 23 40 71 68 162 7 23 7 43 -1 68 -18 54 -44 72 -115 79 -59 7 -66
5 -107 -23 -23 -16 -50 -38 -59 -48 -35 -41 -74 -128 -70 -156 1 -10 -4 -18
-13 -18 -13 0 -15 -11 -12 -60 2 -33 0 -60 -5 -60 -5 0 -9 8 -9 18 0 13 -7 9
-31 -15 -23 -26 -38 -33 -67 -33 -21 0 -48 -7 -60 -16 l-22 -15 6 43 c4 24 8
45 10 47 2 2 -1 10 -7 17 -12 15 -3 90 12 100 5 3 9 14 9 24 0 11 9 24 19 30
27 14 46 106 32 157 -10 36 -55 87 -100 113 -15 9 -15 9 1 10 15 0 16 4 8 26
-8 21 -7 29 6 39 13 9 14 14 4 20 -7 4 -15 3 -19 -2 -3 -6 -16 -13 -28 -17
-32 -10 -30 12 2 24 14 5 25 12 25 16 0 3 -11 3 -25 0 -14 -4 -25 -2 -25 4 0
5 -8 10 -17 10 -17 -1 -17 -2 1 -15z"/>
<path d="M1871 5527 c-1 -13 -6 -17 -19 -13 -50 16 -51 -306 -1 -388 16 -27
19 -28 25 -10 19 58 91 193 116 216 15 14 28 35 28 47 0 25 7 26 31 5 9 -8 25
-15 35 -15 51 0 127 11 138 20 7 6 16 8 20 4 8 -8 26 15 26 33 0 7 -8 22 -18
34 l-17 21 -42 -22 c-23 -12 -43 -30 -46 -39 -7 -26 -71 -31 -92 -8 -8 10 -15
25 -15 32 0 19 -39 9 -63 -15 -10 -11 -24 -19 -32 -19 -8 0 -15 -8 -15 -18 0
-21 -29 -52 -48 -52 -15 0 -16 64 -1 91 8 15 7 24 -2 35 -10 12 -10 17 -1 23
9 5 10 15 3 32 -7 18 -10 20 -10 6z"/>
<path d="M4270 4474 c-41 -10 -60 -11 -77 -3 -17 9 -26 8 -44 -5 -13 -9 -20
-16 -15 -16 5 0 4 -6 -2 -12 -5 -7 -12 -26 -14 -43 -3 -26 0 -30 22 -31 64 -4
89 -16 95 -46 5 -23 11 -28 26 -23 13 4 19 2 17 -6 -2 -7 4 -13 13 -14 22 0
65 -44 79 -79 9 -24 13 -26 25 -16 13 11 18 10 29 -5 9 -12 15 -14 20 -7 4 6
13 9 21 5 10 -3 15 2 15 16 0 27 16 27 30 1 7 -13 16 -18 23 -13 17 11 66 12
72 3 9 -15 45 2 45 21 0 22 11 24 28 7 16 -16 32 5 32 40 0 23 16 30 22 10 9
-26 36 2 42 44 7 48 0 82 -16 72 -5 -3 -22 6 -38 21 -33 31 -84 45 -141 38
-27 -4 -45 -1 -57 9 -9 9 -24 16 -32 16 -13 1 -93 15 -145 25 -11 2 -45 -2
-75 -9z"/>
</g>
</svg>
