<?xml version="1.0" standalone="no"?>
<!DOCTYPE svg PUBLIC "-//W3C//DTD SVG 20010904//EN"
 "http://www.w3.org/TR/2001/REC-SVG-20010904/DTD/svg10.dtd">
<svg version="1.0" xmlns="http://www.w3.org/2000/svg"
 width="5472.000000pt" height="3648.000000pt" viewBox="0 0 5472.000000 3648.000000"
 preserveAspectRatio="xMidYMid meet">

<g transform="translate(0.000000,3648.000000) scale(0.100000,-0.100000)"
fill="#000000" stroke="none">
<path d="M0 18240 l0 -18240 27360 0 27360 0 0 18240 0 18240 -27360 0 -27360
0 0 -18240z m37059 4007 c-2 -1 -13 -9 -24 -17 -19 -14 -19 -14 -6 3 7 9 18
17 24 17 6 0 8 -1 6 -3z m-4609 -450 c0 -11 -30 -15 -36 -5 -5 7 -2 8 6 3 9
-6 10 -2 5 16 -7 21 -6 22 9 7 9 -9 16 -19 16 -21z m11798 -22 c-3 -3 -9 2
-12 12 -6 14 -5 15 5 6 7 -7 10 -15 7 -18z m-11844 -391 c3 -8 2 -12 -4 -9 -6
3 -10 10 -10 16 0 14 7 11 14 -7z m2256 -753 c0 -5 -7 -11 -14 -14 -10 -4 -13
-1 -9 9 6 15 23 19 23 5z m40 -11 c0 -5 -4 -10 -10 -10 -5 0 -10 5 -10 10 0 6
5 10 10 10 6 0 10 -4 10 -10z m515 -240 c3 -5 1 -10 -4 -10 -6 0 -11 5 -11 10
0 6 2 10 4 10 3 0 8 -4 11 -10z m-2705 -80 c0 -5 -4 -10 -10 -10 -5 0 -10 5
-10 10 0 6 5 10 10 10 6 0 10 -4 10 -10z m-38 -22 c-7 -7 -12 -8 -12 -2 0 14
12 26 19 19 2 -3 -1 -11 -7 -17z m108 -148 c-19 -13 -30 -13 -30 0 0 6 10 10
23 10 18 0 19 -2 7 -10z m-24 -365 c-6 -17 5 -20 20 -5 13 13 46 2 38 -12 -4
-6 -9 -5 -14 3 -6 9 -12 8 -26 -5 -13 -13 -19 -14 -25 -5 -7 12 -2 39 8 39 3
0 3 -7 -1 -15z m84 -35 c-10 -19 -30 -28 -30 -14 0 6 30 33 38 34 1 0 -2 -9
-8 -20z m30 -18 c0 -12 -23 -32 -37 -32 -9 0 -8 6 5 19 18 21 32 26 32 13z
m818 -21 c10 -6 9 -11 -4 -22 -16 -12 -17 -12 -11 3 3 9 1 19 -6 22 -7 2 -7 5
-2 5 6 0 16 -3 23 -8z m-18 -72 c0 -6 -5 -7 -12 -3 -7 5 -9 2 -6 -7 4 -10 -1
-15 -13 -15 -12 0 -15 4 -9 12 6 6 8 13 5 15 -2 3 5 5 15 6 11 1 20 -3 20 -8z
m60 -29 c0 -5 -2 -10 -4 -10 -3 0 -8 5 -11 10 -3 6 -1 10 4 10 6 0 11 -4 11
-10z m-1162 -282 c9 -9 7 -14 -6 -24 -9 -8 -24 -13 -32 -13 -12 0 -11 3 4 14
10 7 15 18 11 24 -8 15 8 14 23 -1z m119 -104 c-3 -3 -12 -4 -19 -1 -8 3 -5 6
6 6 11 1 17 -2 13 -5z m-6037 -434 c0 -5 -2 -10 -4 -10 -3 0 -8 5 -11 10 -3 6
-1 10 4 10 6 0 11 -4 11 -10z m7835 -230 c3 -5 1 -10 -4 -10 -6 0 -11 5 -11
10 0 6 2 10 4 10 3 0 8 -4 11 -10z m-20 -68 c-3 -3 -11 0 -18 7 -9 10 -8 11 6
5 10 -3 15 -9 12 -12z m-70 -10 c-3 -3 -11 0 -18 7 -9 10 -8 11 6 5 10 -3 15
-9 12 -12z m-15 -26 c0 -3 -4 -8 -10 -11 -5 -3 -10 -1 -10 4 0 6 5 11 10 11 6
0 10 -2 10 -4z m45 -46 c12 -19 -12 -10 -31 11 -19 22 -19 22 3 10 12 -6 25
-16 28 -21z m-45 0 c0 -5 -2 -10 -4 -10 -3 0 -8 5 -11 10 -3 6 -1 10 4 10 6 0
11 -4 11 -10z m6342 -13 c-7 -8 -10 -17 -7 -21 3 -3 0 -2 -7 3 -8 8 -8 14 2
26 7 8 15 13 18 10 3 -2 0 -11 -6 -18z m-6282 -28 c0 -6 -4 -7 -10 -4 -5 3
-10 11 -10 16 0 6 5 7 10 4 6 -3 10 -11 10 -16z m-2956 -19 c-6 -6 -10 -3 -10
10 0 13 4 16 10 10 7 -7 7 -13 0 -20z m2301 -10 c-18 -6 -18 -7 1 -15 10 -4
23 -7 27 -6 5 1 6 -3 2 -9 -4 -6 -15 -4 -31 6 -19 13 -22 20 -13 30 6 8 16 11
22 7 6 -4 3 -9 -8 -13z m-2260 -10 c0 -7 -6 -15 -12 -17 -8 -3 -13 4 -13 17 0
13 5 20 13 18 6 -3 12 -11 12 -18z m-17 -45 c-11 -11 -37 7 -31 22 5 13 8 13
21 -1 9 -9 13 -18 10 -21z m2227 25 c3 -5 1 -10 -4 -10 -6 0 -11 5 -11 10 0 6
2 10 4 10 3 0 8 -4 11 -10z m189 -42 c-3 -5 6 -8 22 -6 17 2 29 -2 32 -12 5
-13 3 -13 -12 -1 -14 12 -16 12 -10 -3 4 -11 1 -16 -10 -16 -14 0 -15 -4 -5
-22 9 -19 9 -21 -2 -10 -22 20 -32 14 -25 -18 3 -19 2 -29 -4 -25 -6 3 -10 -3
-10 -14 0 -11 -9 -22 -20 -26 -11 -4 -18 -11 -15 -16 4 -5 1 -9 -4 -9 -13 0
-13 6 -4 38 4 16 8 20 13 12 6 -9 9 -9 15 0 4 7 -1 13 -14 17 -21 5 -30 33
-11 33 17 0 23 49 9 67 -13 15 -12 15 9 4 14 -7 21 -18 18 -27 -3 -8 -1 -14 5
-14 18 0 22 31 5 43 -11 8 -15 19 -10 31 7 18 8 18 20 1 7 -10 11 -22 8 -27z
m551 -38 c3 -5 1 -10 -4 -10 -6 0 -11 5 -11 10 0 6 2 10 4 10 3 0 8 -4 11 -10z
m-678 -6 c-3 -3 -12 -4 -19 -1 -8 3 -5 6 6 6 11 1 17 -2 13 -5z m187 -35 c-9
-15 -20 -10 -20 10 0 15 3 17 13 9 7 -6 10 -14 7 -19z m306 -29 c0 -5 -5 -10
-11 -10 -5 0 -7 5 -4 10 3 6 8 10 11 10 2 0 4 -4 4 -10z m42 -37 c19 -34 8
-73 -21 -73 -28 0 -42 48 -23 78 19 29 24 28 44 -5z m-3080 -190 c-3 -9 -8 -9
-19 3 -19 19 -43 2 -42 -30 0 -18 3 -16 14 9 14 30 14 30 15 4 0 -23 3 -25 31
-21 24 3 30 9 26 23 -3 12 0 16 9 12 18 -6 18 -14 0 -38 -8 -12 -19 -16 -31
-12 -13 5 -16 3 -11 -8 3 -9 0 -15 -8 -15 -8 0 -23 -3 -33 -6 -13 -4 -15 -3
-4 4 8 6 9 12 3 16 -6 3 -17 0 -25 -8 -10 -11 -17 -12 -25 -4 -8 8 -10 4 -7
-14 4 -19 0 -27 -15 -31 -10 -3 -24 1 -31 9 -6 8 -8 14 -4 14 4 0 2 6 -4 14
-14 16 -51 10 -51 -9 0 -7 6 -16 13 -18 9 -4 8 -8 -3 -16 -8 -5 -11 -13 -7
-17 4 -4 13 -2 19 4 17 17 33 15 19 -1 -8 -11 -5 -17 16 -26 21 -9 28 -9 34 1
4 6 5 16 3 20 -7 11 8 10 26 -2 13 -8 13 -10 -1 -10 -23 0 -31 -26 -12 -41 13
-12 12 -15 -8 -32 -23 -19 -23 -19 -2 -13 23 7 36 -4 28 -26 -6 -14 -53 -16
-74 -3 -15 9 -14 -4 2 -19 17 -17 65 -18 74 -2 11 18 63 27 56 9 -3 -8 2 -13
15 -13 23 0 43 -41 23 -48 -15 -5 -14 -19 2 -25 6 -2 4 -3 -5 -2 -9 2 -19 -2
-22 -9 -2 -6 -5 -3 -5 8 -1 16 -3 17 -22 5 -11 -8 -21 -18 -21 -24 -1 -15 -37
-37 -48 -30 -6 3 -10 18 -10 33 -1 25 -2 26 -15 8 -16 -21 -37 -13 -29 12 3 9
-1 6 -9 -7 l-14 -23 -8 23 c-4 13 -6 32 -5 42 2 27 -10 20 -21 -13 -6 -16 -15
-28 -20 -25 -4 3 -4 17 2 32 11 31 7 37 -29 38 -21 0 -26 5 -24 19 2 10 -2 23
-10 28 -8 5 -2 6 17 2 l30 -6 -30 26 c-16 14 -24 25 -17 26 7 0 10 5 7 10 -3
6 1 17 9 26 9 8 16 25 16 36 0 17 4 19 25 14 27 -7 32 3 13 22 -10 10 -10 15
2 23 11 7 6 9 -19 7 -24 -2 -35 2 -38 12 -4 13 -3 13 6 0 8 -12 13 -11 30 9
17 19 21 21 21 8 0 -16 13 -22 35 -17 6 1 16 3 23 3 6 0 12 4 12 9 0 5 5 6 11
3 6 -4 8 -13 5 -21 -3 -8 0 -11 10 -7 10 4 12 12 8 27 -6 18 -5 19 10 7 9 -8
16 -9 16 -3 0 6 -4 14 -10 17 -5 3 -10 11 -10 17 0 7 4 7 13 0 9 -8 19 -4 36
14 13 13 32 24 42 24 10 0 19 6 20 13 1 6 4 1 8 -13 4 -14 6 -31 3 -37z m-552
27 c-24 -15 -37 -11 -16 5 11 8 22 12 25 9 3 -3 -1 -9 -9 -14z m0 -24 c0 -2
-8 -10 -17 -17 -16 -13 -17 -12 -4 4 13 16 21 21 21 13z m633 -16 c3 -11 3
-20 1 -20 -2 0 -8 9 -14 20 -6 11 -7 20 -2 20 6 0 12 -9 15 -20z m-273 -4 c0
-3 -4 -8 -10 -11 -5 -3 -10 -1 -10 4 0 6 5 11 10 11 6 0 10 -2 10 -4z m252
-48 c-8 -8 -9 -4 -5 13 4 13 8 18 11 10 2 -7 -1 -18 -6 -23z m4052 3 c3 -5 -1
-12 -10 -15 -20 -8 -29 -1 -19 13 8 13 22 14 29 2z m-4817 -7 c-3 -3 -12 -4
-19 -1 -8 3 -5 6 6 6 11 1 17 -2 13 -5z m873 2 c0 -3 -4 -8 -10 -11 -5 -3 -10
-1 -10 4 0 6 5 11 10 11 6 0 10 -2 10 -4z m-1127 -21 c-3 -9 -8 -14 -10 -11
-3 3 -2 9 2 15 9 16 15 13 8 -4z m1057 0 c0 -2 -9 -3 -19 -2 -11 0 -18 5 -15
9 4 6 34 0 34 -7z m-820 1 c0 -3 -4 -8 -10 -11 -5 -3 -10 -1 -10 4 0 6 5 11
10 11 6 0 10 -2 10 -4z m440 -16 c0 -11 -4 -20 -9 -20 -5 0 -7 9 -4 20 3 11 7
20 9 20 2 0 4 -9 4 -20z m334 -20 c-6 -5 -24 21 -24 34 0 6 6 1 14 -10 8 -10
12 -21 10 -24z m-704 26 c0 -3 -4 -8 -10 -11 -5 -3 -10 -1 -10 4 0 6 5 11 10
11 6 0 10 -2 10 -4z m655 -5 c3 -5 1 -12 -5 -16 -5 -3 -10 1 -10 9 0 18 6 21
15 7z m120 -23 c-2 -19 1 -36 8 -40 7 -4 -3 -5 -20 -2 -21 4 -39 2 -48 -6 -13
-11 -14 -10 -9 3 3 9 15 17 27 19 12 2 21 10 19 17 -4 19 5 41 17 41 6 0 8
-14 6 -32z m30 2 c3 -5 1 -10 -4 -10 -6 0 -11 5 -11 10 0 6 2 10 4 10 3 0 8
-4 11 -10z m-285 -30 c0 -5 -2 -10 -4 -10 -3 0 -8 5 -11 10 -3 6 -1 10 4 10 6
0 11 -4 11 -10z m314 -5 c-3 -8 -12 -11 -20 -8 -20 7 -17 18 5 20 13 1 18 -3
15 -12z m-81 -32 c-9 -3 -10 -10 -3 -23 8 -15 6 -21 -10 -30 -23 -12 -27 -35
-5 -26 8 3 15 1 15 -4 0 -10 -14 -14 -37 -11 -8 1 -10 -5 -6 -15 4 -12 3 -15
-6 -10 -8 5 -10 17 -5 35 4 14 6 36 5 49 -1 21 25 41 54 41 6 -1 4 -3 -2 -6z
m87 -22 c0 -5 -7 -11 -15 -15 -15 -5 -20 5 -8 17 9 10 23 9 23 -2z m-34 -35
c20 -20 18 -23 -16 -23 -34 0 -35 2 -17 22 15 18 16 18 33 1z m-776 -6 c0 -10
-36 -50 -45 -50 -3 0 1 14 10 30 15 29 35 40 35 20z m120 -10 c0 -5 -2 -10 -4
-10 -3 0 -8 5 -11 10 -3 6 -1 10 4 10 6 0 11 -4 11 -10z m40 0 c0 -5 -4 -10
-9 -10 -6 0 -13 5 -16 10 -3 6 1 10 9 10 9 0 16 -4 16 -10z m-25 -30 c3 -5 0
-10 -7 -10 -9 0 -9 -3 2 -10 10 -6 11 -10 3 -10 -7 0 -13 -8 -13 -19 0 -19
-23 -45 -32 -36 -2 3 0 25 6 50 10 42 27 57 41 35z m-123 -22 c-3 -14 -7 -16
-18 -7 -20 16 -17 28 5 26 12 -1 17 -7 13 -19z m175 -8 c-2 -24 -17 -15 -17
11 0 11 4 18 9 14 6 -3 9 -14 8 -25z m539 15 c-25 -19 -41 -19 -24 0 7 8 20
14 28 14 11 0 10 -3 -4 -14z m-356 -5 c0 -5 -10 -10 -22 -10 -19 0 -20 2 -8
10 19 13 30 13 30 0z m-182 -60 c10 -16 10 -20 0 -20 -9 0 -8 -3 2 -10 17 -11
16 -11 -22 -15 -20 -3 -25 0 -21 11 3 8 9 14 15 14 5 0 6 9 3 20 -3 11 -3 20
2 20 4 0 14 -9 21 -20z m343 -74 c11 6 11 4 0 -10 -11 -13 -16 -14 -22 -4 -5
7 -9 18 -9 23 0 6 4 4 9 -4 5 -8 14 -10 22 -5z m6237 -71 c-3 -3 -9 2 -12 12
-6 14 -5 15 5 6 7 -7 10 -15 7 -18z m-6890 -10 c-3 -3 -9 2 -12 12 -6 14 -5
15 5 6 7 -7 10 -15 7 -18z m6805 -17 c-4 -21 -3 -21 9 -7 19 23 65 21 71 -2 4
-14 -1 -21 -19 -25 -13 -4 -33 -18 -44 -32 -11 -14 -24 -22 -28 -17 -4 4 -1
10 6 12 21 8 13 25 -8 18 -23 -7 -24 0 -9 44 13 36 30 42 22 9z m131 14 c-6
-4 -14 -14 -17 -22 -4 -10 -6 -8 -6 8 -1 15 5 22 17 22 10 0 13 -3 6 -8z
m-6152 -53 l8 -24 -19 22 c-14 16 -21 19 -30 10 -8 -8 -11 -8 -11 0 0 12 19
23 34 19 5 -1 13 -13 18 -27z m-68 -31 c-5 -8 2 -9 25 -5 20 4 30 3 26 -3 -3
-6 -13 -10 -22 -10 -14 0 -14 -3 2 -20 10 -12 24 -19 31 -16 9 3 11 -1 7 -11
-5 -12 -2 -15 10 -10 9 3 17 2 17 -3 0 -5 7 -7 15 -4 8 4 17 -1 21 -10 4 -11
13 -14 25 -11 14 5 17 2 13 -9 -4 -12 -2 -15 9 -10 21 8 30 36 15 45 -7 4 -9
11 -5 16 5 4 13 1 18 -7 8 -11 12 -12 16 -2 7 17 23 15 23 -3 0 -8 -3 -14 -7
-14 -21 3 -22 -3 -7 -27 9 -14 23 -23 30 -20 8 3 14 0 15 -7 6 -64 6 -77 -2
-77 -15 0 -21 21 -8 36 10 12 9 13 -5 8 -9 -3 -16 -16 -15 -28 4 -44 -1 -58
-17 -52 -8 3 -12 2 -9 -4 6 -9 2 -12 -27 -14 -21 -2 -49 -36 -42 -49 5 -9 3
-9 -7 1 -18 17 -27 15 -34 -8 -4 -11 -15 -20 -26 -20 -11 0 -17 5 -14 10 3 6
-1 10 -9 10 -9 0 -16 5 -16 10 0 17 -18 11 -24 -7 -3 -10 -4 1 -2 25 4 45 0
51 -18 27 -7 -9 -19 -12 -33 -9 -23 6 -23 26 0 20 7 -1 9 -1 4 1 -4 3 -5 9 -1
14 3 5 0 9 -5 9 -6 0 -11 9 -11 20 0 11 -6 20 -12 20 -7 0 -5 5 5 11 9 5 23 7
30 4 6 -4 4 0 -6 8 -17 14 -17 15 0 22 13 5 14 9 5 12 -10 4 -10 8 -1 19 9 11
8 14 -5 14 -9 0 -16 -6 -16 -14 0 -8 -4 -18 -10 -21 -6 -4 -7 1 -3 12 5 14 1
13 -20 -6 l-26 -23 6 23 c3 13 11 31 18 39 7 8 22 33 34 55 12 22 21 34 21 27
0 -6 5 -12 11 -12 6 0 9 6 6 14 -3 8 -3 17 0 20 10 10 15 7 7 -6z m6207 -9
c10 -19 9 -20 -13 -14 -20 7 -21 6 -9 -8 7 -9 17 -15 21 -12 5 3 12 0 15 -6 5
-7 -1 -9 -15 -7 -32 4 -47 31 -29 51 18 21 16 21 30 -4z m-5914 -3 c0 -8 -10
-13 -23 -12 -17 1 -20 4 -12 14 14 16 35 15 35 -2z m-57 -12 c0 -8 -4 -12 -10
-9 -5 3 -10 10 -10 16 0 5 5 9 10 9 6 0 10 -7 10 -16z m5820 6 c0 -5 -2 -10
-4 -10 -3 0 -8 5 -11 10 -3 6 -1 10 4 10 6 0 11 -4 11 -10z m100 -9 c0 -9 -60
-71 -69 -71 -5 0 -14 6 -20 14 -10 12 -7 15 16 18 23 2 28 8 28 29 0 21 3 25
22 21 13 -2 23 -7 23 -11z m-350 -1 c0 -5 -7 -10 -16 -10 -8 0 -12 5 -9 10 3
6 10 10 16 10 5 0 9 -4 9 -10z m-5477 -7 c-7 -2 -13 -11 -13 -19 0 -8 -4 -14
-10 -14 -5 0 -10 6 -10 14 0 14 15 24 35 24 6 0 4 -2 -2 -5z m5770 -8 c-3 -9
-8 -14 -10 -11 -3 3 -2 9 2 15 9 16 15 13 8 -4z m-73 -5 c-8 -5 -19 -10 -25
-10 -5 0 -3 5 5 10 8 5 20 10 25 10 6 0 3 -5 -5 -10z m173 -34 c8 5 8 3 0 -7
-16 -16 -17 -37 -2 -22 6 6 19 9 28 5 14 -5 14 -4 2 14 -8 10 -3 8 11 -6 14
-14 23 -29 20 -35 -3 -5 -7 -4 -10 3 -4 14 -42 16 -42 3 0 -17 -42 -24 -51
-10 -7 11 -9 10 -9 -4 0 -10 -4 -16 -9 -12 -5 3 -13 0 -17 -7 -5 -7 -10 -3
-16 12 -7 18 -5 26 7 32 8 5 15 16 15 23 0 8 5 15 11 15 5 0 8 -4 4 -9 -3 -5
-1 -12 5 -16 5 -3 10 2 10 13 0 26 12 36 23 17 4 -8 14 -12 20 -9z m-263 10
c0 -3 -4 -8 -10 -11 -5 -3 -10 -1 -10 4 0 6 5 11 10 11 6 0 10 -2 10 -4z m374
-11 c3 -9 0 -15 -9 -15 -8 0 -15 7 -15 15 0 8 4 15 9 15 5 0 11 -7 15 -15z
m-542 -26 c-10 -10 -21 -13 -27 -7 -11 10 7 25 30 25 12 0 11 -4 -3 -18z m53
11 c3 -6 -1 -7 -9 -4 -18 7 -21 14 -7 14 6 0 13 -4 16 -10z m213 -15 c-3 -3
-9 2 -12 12 -6 14 -5 15 5 6 7 -7 10 -15 7 -18z m-5768 11 c0 -3 -4 -8 -10
-11 -5 -3 -10 -1 -10 4 0 6 5 11 10 11 6 0 10 -2 10 -4z m5645 -6 c3 -5 -3
-10 -15 -10 -12 0 -18 5 -15 10 3 6 10 10 15 10 5 0 12 -4 15 -10z m155 -20
c-8 -5 -17 -7 -19 -4 -3 3 1 9 9 14 8 5 17 7 19 4 3 -3 -1 -9 -9 -14z m235 10
c3 -6 -1 -7 -9 -4 -18 7 -21 14 -7 14 6 0 13 -4 16 -10z m-438 -16 c3 -8 0
-21 -7 -27 -10 -9 -11 -9 -5 1 4 8 0 19 -11 27 -18 14 -18 14 -1 15 10 0 20
-7 24 -16z m-5297 -14 c0 -5 -4 -10 -10 -10 -5 0 -10 5 -10 10 0 6 5 10 10 10
6 0 10 -4 10 -10z m5715 0 c-3 -5 -11 -10 -16 -10 -6 0 -7 5 -4 10 3 6 11 10
16 10 6 0 7 -4 4 -10z m-6351 -34 c-3 -9 -10 -16 -15 -16 -6 0 -5 9 1 21 13
24 24 20 14 -5z m6206 4 c0 -5 -5 -10 -11 -10 -5 0 -7 5 -4 10 3 6 8 10 11 10
2 0 4 -4 4 -10z m313 -43 c3 -8 -4 -13 -21 -12 -14 0 -27 5 -29 10 -5 15 44
17 50 2z m-493 -12 c-7 -9 -15 -13 -17 -11 -7 7 7 26 19 26 6 0 6 -6 -2 -15z
m478 -28 c6 3 12 0 12 -6 0 -6 -5 -11 -11 -11 -8 0 -7 -6 2 -17 12 -15 12 -16
-3 -10 -12 4 -15 2 -11 -9 3 -7 9 -14 13 -14 4 0 7 -7 6 -16 0 -9 5 -19 13
-22 9 -3 12 0 9 9 -3 8 0 20 7 26 10 10 14 9 19 -3 3 -9 11 -12 18 -8 8 5 9 2
5 -9 -3 -10 -2 -17 3 -17 9 0 14 14 11 32 0 4 9 7 21 5 16 -1 23 5 28 22 8 34
29 39 23 6 -3 -14 -10 -25 -15 -25 -5 0 -6 -9 -3 -20 4 -12 1 -27 -5 -35 -7
-8 -10 -25 -8 -38 5 -27 -13 -29 -49 -7 -15 10 -19 18 -12 26 6 8 4 16 -8 25
-14 12 -16 12 -11 -1 3 -8 1 -23 -4 -32 -6 -13 -5 -18 7 -18 24 0 17 -20 -7
-22 -13 0 -36 -2 -53 -3 -16 -1 -31 -7 -33 -14 -2 -6 -9 -11 -16 -11 -15 0
-15 41 -1 53 6 5 0 5 -13 2 -12 -4 -22 -3 -21 2 5 30 -2 45 -21 40 -16 -4 -18
-2 -10 13 5 10 14 20 19 22 5 2 5 13 0 25 -6 15 -13 21 -24 16 -10 -3 -13 -8
-6 -12 6 -4 7 -12 1 -21 -8 -13 -10 -12 -10 3 0 9 -6 17 -12 17 -8 0 -9 3 -3
8 20 14 34 59 22 71 -13 13 -2 14 21 2 9 -4 31 -11 47 -15 24 -5 26 -4 13 4
-10 6 -18 16 -18 22 0 7 12 0 28 -14 15 -14 33 -23 40 -21z m-524 18 c-4 -8
-11 -12 -16 -9 -6 4 -5 10 3 15 19 12 19 11 13 -6z m81 -5 c-3 -5 -16 -11 -28
-11 -17 -1 -16 -3 8 -10 l30 -8 -30 2 c-37 2 -58 -10 -51 -29 3 -8 -1 -14 -9
-14 -8 0 -15 7 -15 15 0 8 5 15 10 15 6 0 10 9 10 21 0 14 5 19 13 16 8 -3 20
-1 28 4 19 12 42 11 34 -1z m-27 -66 c0 -17 -5 -24 -14 -20 -18 7 -18 1 2 -19
15 -15 18 -15 35 4 11 11 19 26 19 33 0 7 6 4 12 -7 6 -11 24 -33 40 -48 15
-16 28 -35 28 -42 0 -8 4 -16 10 -20 15 -9 -12 58 -31 79 -10 10 -15 24 -12
29 4 7 9 5 12 -4 10 -24 35 -59 43 -59 5 0 8 9 8 20 0 11 8 24 18 27 9 4 20
10 23 15 3 4 13 2 23 -5 19 -14 13 -47 -10 -47 -8 0 -14 -4 -14 -10 0 -5 -8
-10 -17 -11 -13 0 -11 -3 7 -11 24 -10 24 -11 4 -17 -41 -12 -72 -42 -66 -65
5 -18 3 -19 -11 -8 -9 8 -20 11 -26 8 -12 -8 -41 3 -41 15 0 5 11 7 25 3 15
-4 25 -2 25 5 0 6 -13 11 -30 11 -19 0 -33 7 -40 20 -8 15 -18 18 -46 15 l-35
-5 28 26 c26 24 26 26 6 20 -14 -5 -23 -3 -23 3 0 6 5 11 11 11 6 0 9 7 5 15
-6 18 10 65 23 65 4 0 9 -12 9 -26z m-6234 -1 c-2 -28 -4 -33 -14 -33 -5 0 -7
7 -4 15 7 17 -11 21 -21 5 -10 -17 -23 -11 -18 8 5 21 59 25 57 5z m266 -3
c-8 -5 -17 -7 -19 -4 -3 3 1 9 9 14 8 5 17 7 19 4 3 -3 -1 -9 -9 -14z m5911
-23 c10 -13 -3 -65 -17 -71 -31 -12 -61 22 -34 39 6 3 7 -1 4 -9 -4 -11 0 -16
11 -16 11 0 15 5 12 14 -3 8 -1 17 6 20 7 2 5 5 -4 5 -16 1 -32 35 -21 45 5 6
31 -11 43 -27z m-3041 -1 c0 -8 -7 -16 -15 -20 -13 -4 -14 -2 -5 14 13 23 20
26 20 6z m-178 -10 c4 -6 5 -19 2 -30 -4 -11 -2 -16 4 -12 6 3 13 2 16 -3 3
-5 -1 -11 -9 -14 -14 -6 -68 51 -60 63 7 11 39 8 47 -4z m738 -12 c0 -8 -5
-12 -10 -9 -6 4 -8 11 -5 16 9 14 15 11 15 -7z m-3510 -47 c0 -11 9 -21 20
-24 16 -4 18 -8 9 -19 -9 -11 -8 -14 5 -14 18 0 22 -25 6 -35 -6 -4 -10 -3 -9
2 3 18 -2 27 -9 16 -5 -8 -12 -8 -26 3 -14 10 -16 17 -8 27 7 7 7 18 2 27 -5
8 -6 18 -4 22 3 4 1 8 -5 8 -6 0 -8 7 -4 16 5 13 7 13 14 2 5 -7 9 -21 9 -31z
m663 12 c19 -35 18 -43 -6 -33 -9 3 -13 12 -11 19 3 7 1 16 -5 20 -6 3 -11 10
-11 16 0 18 15 8 33 -22z m2844 -11 c-3 -8 -6 -5 -6 6 -1 11 2 17 5 13 3 -3 4
-12 1 -19z m2758 12 c3 -5 1 -10 -4 -10 -6 0 -11 5 -11 10 0 6 2 10 4 10 3 0
8 -4 11 -10z m-6141 -21 c-3 -5 -10 -7 -15 -3 -5 3 -7 10 -3 15 3 5 10 7 15 3
5 -3 7 -10 3 -15z m-47 -4 c0 -8 -4 -15 -9 -15 -10 0 -11 14 -1 23 9 10 10 9
10 -8z m-133 -11 c3 -8 2 -12 -4 -9 -6 3 -10 10 -10 16 0 14 7 11 14 -7z m486
-5 c0 -14 -16 -11 -29 5 -10 12 -8 13 8 9 12 -3 21 -9 21 -14z m-314 -8 c-4
-5 0 -12 6 -15 7 -3 4 -5 -6 -3 -24 3 -34 27 -11 27 9 0 14 -4 11 -9z m6105
-14 c-10 -9 -11 -8 -5 6 3 10 9 15 12 12 3 -3 0 -11 -7 -18z m223 -7 c4 -21
11 -30 25 -30 11 0 23 -5 27 -11 4 -8 -1 -9 -17 -3 -13 4 -37 7 -52 6 -16 -1
-25 3 -22 9 4 5 12 6 18 3 8 -5 8 -3 0 7 -15 16 -17 33 -3 24 6 -3 7 1 4 9 -3
9 -2 16 4 16 5 0 12 -13 16 -30z m-6519 10 c3 -5 1 -10 -4 -10 -6 0 -11 5 -11
10 0 6 2 10 4 10 3 0 8 -4 11 -10z m709 -14 c26 -6 28 -5 17 8 -8 10 -9 16 -3
16 17 0 25 -21 13 -33 -6 -6 -11 -19 -11 -28 0 -17 -58 -51 -72 -43 -13 9 -9
32 10 50 16 17 16 18 0 11 -13 -5 -18 -1 -18 12 0 23 10 33 24 22 6 -4 24 -11
40 -15z m-263 1 c9 -7 14 -17 12 -24 -2 -6 4 -17 14 -25 11 -7 19 -24 18 -38
0 -22 -4 -25 -30 -22 -35 4 -55 18 -55 39 0 8 -4 11 -10 8 -12 -8 -13 0 -1 23
5 9 12 25 15 35 6 20 15 21 37 4z m56 -7 c-1 -11 -4 -20 -8 -20 -4 0 -9 9 -12
20 -3 13 0 20 8 20 8 0 13 -9 12 -20z m6141 0 c-7 -10 -14 -17 -17 -15 -4 4
18 35 25 35 2 0 -1 -9 -8 -20z m-6398 -15 c11 -13 10 -14 -4 -9 -9 3 -16 10
-16 15 0 13 6 11 20 -6z m-286 -21 c5 -14 4 -15 -9 -4 -17 14 -19 20 -6 20 5
0 12 -7 15 -16z m6236 -5 c0 -5 -10 -9 -21 -9 -18 0 -19 2 -9 15 12 15 30 12
30 -6z m-6247 -25 c4 -7 14 -11 22 -8 8 4 15 2 15 -4 0 -5 -9 -12 -21 -15 -15
-4 -23 0 -26 14 -3 10 -14 19 -24 19 -11 0 -19 5 -19 11 0 14 43 0 53 -17z
m6344 20 c-3 -3 -12 -4 -19 -1 -8 3 -5 6 6 6 11 1 17 -2 13 -5z m-556 -14 c5
0 0 -9 -10 -19 -22 -22 -63 -18 -54 6 3 8 12 12 20 9 9 -4 11 -2 7 6 -5 8 -2
9 10 5 10 -4 22 -7 27 -7z m-2851 -15 c0 -8 -4 -15 -10 -15 -5 0 -7 7 -4 15 4
8 8 15 10 15 2 0 4 -7 4 -15z m3320 6 c0 -6 -4 -13 -10 -16 -5 -3 -10 1 -10 9
0 9 5 16 10 16 6 0 10 -4 10 -9z m-4773 -31 c3 0 2 7 -1 16 -5 14 -4 15 9 4
16 -13 21 -35 6 -26 -14 9 -21 -35 -8 -56 9 -16 9 -22 0 -25 -7 -3 -13 -10
-13 -16 0 -7 -4 -18 -9 -26 -8 -12 -12 -11 -27 4 -17 17 -17 17 4 11 23 -8 31
8 10 18 -10 5 -10 7 0 12 6 3 12 10 12 15 0 6 -5 7 -10 4 -6 -4 -18 -1 -27 7
-14 11 -16 10 -11 -8 3 -12 1 -28 -4 -35 -8 -11 -9 -10 -4 4 3 9 1 17 -4 17
-19 0 -9 25 21 55 17 16 25 31 20 33 -6 2 -9 8 -5 13 3 5 12 2 20 -6 9 -8 18
-15 21 -15z m-1520 14 c-3 -3 -12 -4 -19 -1 -8 3 -5 6 6 6 11 1 17 -2 13 -5z
m389 -1 c-15 -4 -16 -7 -5 -15 12 -8 12 -9 0 -6 -25 7 -24 28 1 27 19 -1 20
-2 4 -6z m2518 -5 c-3 -4 -9 -8 -15 -8 -5 0 -9 4 -9 8 0 5 7 9 15 9 8 0 12 -4
9 -9z m2926 8 c0 -3 -4 -8 -10 -11 -5 -3 -10 -1 -10 4 0 6 5 11 10 11 6 0 10
-2 10 -4z m-5750 -26 c8 -5 12 -12 9 -15 -8 -8 -39 5 -39 16 0 11 11 11 30 -1z
m2780 6 c0 -3 -4 -8 -10 -11 -5 -3 -10 -1 -10 4 0 6 5 11 10 11 6 0 10 -2 10
-4z m84 -12 c10 -26 7 -29 -9 -8 -17 22 -20 12 -5 -16 7 -13 7 -21 0 -25 -5
-3 -10 1 -10 9 0 19 -11 21 -28 4 -16 -16 -35 3 -26 25 7 18 24 23 24 7 0 -5
-5 -10 -12 -10 -6 0 -8 -3 -5 -7 4 -3 16 3 27 15 25 26 36 28 44 6z m2831 7
c10 -17 -12 -21 -25 -6 -10 12 -10 15 3 15 9 0 18 -4 22 -9z m945 -21 c-20
-13 -40 -13 -40 0 0 5 6 7 14 4 8 -3 17 0 21 6 4 6 10 9 13 5 4 -3 0 -10 -8
-15z m-4340 0 c-8 -5 -19 -10 -25 -10 -5 0 -3 5 5 10 8 5 20 10 25 10 6 0 3
-5 -5 -10z m3467 -22 c-3 -7 -5 -2 -5 12 0 14 2 19 5 13 2 -7 2 -19 0 -25z
m733 22 c0 -5 -2 -10 -4 -10 -3 0 -8 5 -11 10 -3 6 -1 10 4 10 6 0 11 -4 11
-10z m175 -29 c-3 -6 -11 -11 -17 -11 -6 0 -6 6 2 15 14 17 26 13 15 -4z
m-591 0 c3 -5 -3 -11 -15 -14 -16 -4 -18 -3 -8 9 13 16 16 17 23 5z m499 -22
c5 -4 5 -9 -2 -13 -6 -4 -11 -2 -11 4 0 6 -5 8 -10 5 -8 -5 -8 -11 -1 -19 8
-9 -4 -10 -54 -2 -36 5 -63 12 -59 15 5 5 19 6 92 10 14 1 22 8 23 19 0 13 2
14 6 2 3 -8 10 -18 16 -21z m32 21 c3 -5 -3 -10 -14 -10 -12 0 -21 5 -21 10 0
6 6 10 14 10 8 0 18 -4 21 -10z m-175 -10 c0 -5 -5 -10 -11 -10 -5 0 -7 5 -4
10 3 6 8 10 11 10 2 0 4 -4 4 -10z m-6115 -10 c8 -13 -5 -13 -25 0 -13 8 -13
10 2 10 9 0 20 -4 23 -10z m1335 -23 c0 -4 -6 -2 -14 5 -8 7 -12 17 -9 22 5 8
23 -12 23 -27z m-74 14 c-14 -5 -16 -10 -7 -15 6 -4 18 -5 26 -2 8 3 15 1 15
-4 0 -6 8 -10 17 -10 13 0 14 -3 5 -12 -7 -7 -12 -20 -12 -30 0 -20 -15 -24
-25 -7 -5 7 -13 5 -24 -5 -10 -9 -21 -13 -26 -9 -4 5 -5 -1 -1 -13 4 -14 2
-21 -8 -21 -20 0 -13 57 9 73 15 11 16 16 5 29 -12 14 -11 18 1 26 8 5 21 8
29 8 10 0 9 -3 -4 -8z m4161 -27 c3 -8 2 -22 -1 -31 -6 -15 -8 -15 -16 -3 -8
12 -10 12 -15 -1 -8 -22 -41 -21 -41 2 0 14 5 17 20 13 19 -6 19 -6 3 10 -9
10 -17 24 -17 31 0 11 6 12 31 3 17 -6 33 -17 36 -24z m958 26 c3 -5 2 -10 -4
-10 -5 0 -13 5 -16 10 -3 6 -2 10 4 10 5 0 13 -4 16 -10z m-390 -10 c3 -5 1
-10 -4 -10 -6 0 -11 5 -11 10 0 6 2 10 4 10 3 0 8 -4 11 -10z m-5830 -42 c-8
-47 -15 -60 -22 -40 -3 6 -12 12 -21 12 -10 0 -13 3 -7 8 6 4 16 19 24 35 21
40 34 33 26 -15z m54 26 c-12 -15 -11 -16 7 -10 19 6 22 2 26 -28 4 -33 2 -35
-21 -29 -18 4 -22 3 -16 -7 5 -9 2 -10 -13 -6 -17 6 -23 2 -28 -18 -3 -14 -10
-23 -15 -20 -5 3 -5 13 1 24 5 10 10 29 10 42 0 14 9 34 20 46 24 26 50 31 29
6z m951 12 c0 -3 -4 -8 -10 -11 -5 -3 -10 -1 -10 4 0 6 5 11 10 11 6 0 10 -2
10 -4z m795 -6 c3 -5 1 -10 -4 -10 -6 0 -11 5 -11 10 0 6 2 10 4 10 3 0 8 -4
11 -10z m-2177 -20 c3 -7 0 -10 -7 -6 -6 4 -11 2 -11 -3 0 -6 5 -11 10 -11 6
0 10 -7 10 -16 0 -8 -5 -12 -11 -9 -6 4 -9 0 -7 -11 2 -14 -4 -19 -22 -21 -14
-1 -18 0 -7 3 24 8 21 24 -5 24 -20 0 -20 1 -4 13 9 7 19 21 21 32 2 11 4 22
4 23 2 9 25 -6 29 -18z m1595 -6 c-3 -8 0 -14 6 -14 8 0 8 -4 -1 -14 -16 -18
-19 -15 -22 22 -1 20 2 28 10 25 7 -3 10 -11 7 -19z m-183 0 c0 -14 -3 -14
-15 -4 -8 7 -15 14 -15 16 0 2 7 4 15 4 8 0 15 -7 15 -16z m1130 12 c0 -3 -4
-8 -10 -11 -5 -3 -10 -1 -10 4 0 6 5 11 10 11 6 0 10 -2 10 -4z m2645 -15 c-4
-14 0 -21 12 -24 16 -4 16 -5 1 -6 -21 -1 -30 12 -22 33 9 23 17 20 9 -3z
m-115 -5 c0 -3 -4 -8 -10 -11 -5 -3 -10 -1 -10 4 0 6 5 11 10 11 6 0 10 -2 10
-4z m1893 -45 c-9 -14 -8 -21 2 -32 11 -11 12 -23 3 -56 -6 -24 -13 -43 -17
-43 -11 0 -33 60 -27 75 3 9 0 15 -8 15 -19 0 -26 33 -11 53 10 14 13 15 27 1
14 -14 16 -14 22 1 3 9 2 13 -4 10 -6 -3 -10 2 -10 12 0 16 1 16 17 0 14 -14
15 -21 6 -36z m-5693 29 c-20 -13 -33 -13 -25 0 3 6 14 10 23 10 15 0 15 -2 2
-10z m88 -17 c0 -21 -2 -23 -10 -9 -5 9 -6 21 -3 26 10 16 13 12 13 -17z m209
-11 c16 -17 13 -34 -8 -41 -12 -4 -12 -2 0 12 12 15 11 17 -6 17 -14 0 -19 6
-17 23 3 32 5 34 11 17 4 -8 12 -21 20 -28z m3533 29 c0 -5 -7 -11 -15 -15
-15 -5 -20 5 -8 17 9 10 23 9 23 -2z m145 -1 c3 -6 -1 -7 -9 -4 -18 7 -21 14
-7 14 6 0 13 -4 16 -10z m-5340 -10 c3 -6 -1 -7 -9 -4 -18 7 -21 14 -7 14 6 0
13 -4 16 -10z m5225 0 c0 -5 -5 -10 -11 -10 -5 0 -7 5 -4 10 3 6 8 10 11 10 2
0 4 -4 4 -10z m-3800 -26 c0 -19 -28 -49 -38 -39 -4 3 1 12 11 19 25 19 21 27
-10 21 -23 -4 -25 -4 -8 4 30 14 45 13 45 -5z m3907 -10 c-9 -9 -28 6 -21 18
4 6 10 6 17 -1 6 -6 8 -13 4 -17z m-5135 -6 c-7 -7 -12 -8 -12 -2 0 14 12 26
19 19 2 -3 -1 -11 -7 -17z m1288 1 c-12 -7 -13 -11 -2 -18 11 -6 9 -9 -6 -13
-16 -5 -19 -2 -15 11 9 24 25 42 32 36 3 -3 -1 -10 -9 -16z m3728 10 c-2 -6
-8 -10 -13 -10 -5 0 -11 4 -13 10 -2 6 4 11 13 11 9 0 15 -5 13 -11z m-5253
-19 c-3 -5 -11 -10 -16 -10 -6 0 -7 5 -4 10 3 6 11 10 16 10 6 0 7 -4 4 -10z
m560 0 c3 -5 1 -10 -4 -10 -6 0 -11 5 -11 10 0 6 2 10 4 10 3 0 8 -4 11 -10z
m855 -6 c0 -2 -9 -4 -21 -4 -11 0 -18 4 -14 10 5 8 35 3 35 -6z m3779 -16
c-11 -20 -25 -23 -34 -8 -9 15 1 26 23 26 17 0 19 -4 11 -18z m-5129 8 c0 -3
-4 -8 -10 -11 -5 -3 -10 -1 -10 4 0 6 5 11 10 11 6 0 10 -2 10 -4z m5360 -6
c8 -5 11 -10 5 -10 -5 0 -17 5 -25 10 -8 5 -10 10 -5 10 6 0 17 -5 25 -10z
m-4071 -11 c-12 -7 -12 -12 -1 -30 7 -11 12 -23 10 -24 -7 -7 -23 10 -34 35
-10 23 -9 25 14 27 18 1 21 -1 11 -8z m3876 -9 c17 -7 17 -9 3 -9 -10 -1 -18
-7 -18 -15 0 -8 -13 -19 -29 -24 -30 -11 -41 -7 -41 12 0 8 3 7 8 0 4 -8 15
-8 30 -3 18 7 22 14 17 29 -7 22 -1 23 30 10z m540 0 c3 -5 1 -10 -4 -10 -6 0
-11 5 -11 10 0 6 2 10 4 10 3 0 8 -4 11 -10z m-5285 -10 c0 -5 -4 -10 -10 -10
-5 0 -10 5 -10 10 0 6 5 10 10 10 6 0 10 -4 10 -10z m833 -14 c4 -10 1 -13 -8
-9 -8 3 -12 9 -9 14 7 12 11 11 17 -5z m747 -6 c0 -5 -2 -10 -4 -10 -3 0 -8 5
-11 10 -3 6 -1 10 4 10 6 0 11 -4 11 -10z m-3134 -11 c3 -6 1 -16 -6 -22 -10
-9 -12 -8 -7 5 4 11 0 18 -11 21 -16 4 -16 5 0 6 9 0 20 -4 24 -10z m6219 -69
c-12 -14 -12 -17 5 -28 12 -7 21 -8 25 -2 3 6 -2 10 -11 10 -24 0 -9 13 17 15
16 1 19 -3 15 -21 -7 -28 7 -39 24 -19 11 13 10 14 -6 9 -15 -5 -16 -4 -8 5 9
10 17 10 34 1 12 -6 33 -9 46 -6 21 6 24 3 24 -19 0 -14 -4 -25 -10 -25 -5 0
-10 6 -10 14 0 10 -9 14 -27 11 -16 -1 -27 -8 -26 -14 2 -5 -4 -8 -12 -5 -8 4
-15 1 -15 -4 0 -6 -11 -12 -25 -14 -14 -2 -24 -6 -23 -9 4 -10 -33 -49 -46
-48 -6 0 -6 3 2 6 19 7 14 26 -5 19 -17 -6 -17 -5 0 8 19 14 23 36 7 36 -5 0
-10 -4 -10 -10 0 -5 -7 -10 -16 -10 -9 0 -12 -5 -8 -12 4 -7 3 -8 -4 -4 -7 4
-12 14 -12 23 0 9 -6 13 -15 9 -8 -3 -15 -1 -15 4 0 6 5 10 10 10 6 0 10 7 10
15 0 12 -4 14 -19 5 -14 -7 -22 -7 -26 0 -4 6 -11 7 -17 4 -6 -4 -8 -2 -5 4 4
5 16 8 27 5 12 -3 20 0 20 7 0 7 8 9 20 5 15 -5 18 -3 14 8 -3 8 5 23 19 33
13 11 21 26 19 34 -3 9 6 5 22 -9 23 -22 24 -26 11 -41z m-6275 33 c0 -3 -7
-3 -15 1 -8 3 -15 0 -15 -6 0 -6 -3 -9 -6 -5 -11 10 6 26 21 20 8 -3 15 -7 15
-10z m2490 13 c0 -3 -4 -8 -10 -11 -5 -3 -10 -1 -10 4 0 6 5 11 10 11 6 0 10
-2 10 -4z m4475 -16 c4 -6 -6 -10 -22 -9 -25 0 -26 1 -8 9 11 5 21 9 22 9 1 1
5 -3 8 -9z m-385 -20 c0 -5 -2 -10 -4 -10 -3 0 -8 5 -11 10 -3 6 -1 10 4 10 6
0 11 -4 11 -10z m4926 -16 c-4 -9 -9 -15 -11 -12 -3 3 -3 13 1 22 4 9 9 15 11
12 3 -3 3 -13 -1 -22z m77 11 c-3 -9 -8 -14 -10 -11 -3 3 -2 9 2 15 9 16 15
13 8 -4z m-4553 -16 c0 -5 -7 -6 -15 -3 -16 7 -19 -4 -7 -23 5 -8 13 -9 22 -3
17 11 37 13 26 3 -11 -12 47 -31 62 -20 8 6 12 5 14 -4 0 -8 2 -18 2 -24 1 -5
5 -16 10 -24 6 -9 5 -12 -5 -9 -8 3 -13 15 -11 27 2 20 0 21 -13 7 -8 -8 -15
-22 -15 -30 0 -9 -8 -16 -17 -16 -15 0 -15 -2 -4 -9 12 -8 12 -12 -1 -25 -9
-9 -18 -20 -20 -24 -1 -5 -14 -13 -27 -17 -18 -6 -23 -4 -19 6 7 17 -63 22
-74 5 -10 -15 -27 36 -31 92 -2 30 2 52 11 61 7 7 11 20 8 27 -3 8 -1 14 5 14
7 0 9 -10 5 -24 -3 -14 -2 -28 4 -31 6 -3 10 4 10 16 0 22 0 22 15 3 13 -18
14 -18 21 12 5 25 10 31 25 27 10 -3 19 -9 19 -14z m-199 -12 c-10 -9 -11 -8
-5 6 3 10 9 15 12 12 3 -3 0 -11 -7 -18z m-431 9 c0 -3 -4 -8 -10 -11 -5 -3
-10 -1 -10 4 0 6 5 11 10 11 6 0 10 -2 10 -4z m136 -9 c4 -4 -3 -7 -15 -7 -17
0 -21 -4 -17 -15 6 -18 -16 -30 -39 -21 -9 3 -12 12 -8 23 4 10 8 12 11 5 2
-7 8 -12 13 -12 6 0 6 7 0 19 -9 17 -7 19 19 17 16 -1 33 -5 36 -9z m354 9 c0
-3 -4 -8 -10 -11 -5 -3 -10 -1 -10 4 0 6 5 11 10 11 6 0 10 -2 10 -4z m1300
-26 c-6 -10 -9 -27 -9 -37 1 -17 2 -17 6 0 7 28 23 19 23 -13 0 -24 -4 -30
-22 -30 -21 -1 -22 -2 -5 -14 24 -19 21 -26 -12 -26 -32 0 -59 24 -41 35 8 5
5 11 -7 21 -11 8 -13 13 -5 14 8 0 10 8 6 25 -5 21 -3 24 12 18 14 -5 16 -3
11 10 -6 15 -4 16 16 6 20 -11 21 -11 9 4 -11 13 -10 15 7 10 16 -4 19 -9 11
-23z m-444 -9 c9 7 14 8 14 1 0 -6 -4 -14 -10 -17 -5 -3 -10 -11 -10 -16 0 -6
4 -7 10 -4 6 4 8 -13 5 -45 -4 -50 -4 -50 23 -44 26 5 27 5 7 -12 -12 -10 -14
-15 -5 -12 56 19 60 19 60 4 0 -12 8 -15 36 -11 29 3 34 2 25 -9 -6 -7 -8 -22
-5 -32 4 -11 4 -16 -1 -12 -4 4 -14 0 -21 -10 -11 -14 -13 -15 -14 -1 0 8 5
20 12 27 6 6 9 15 5 19 -4 4 -13 1 -19 -5 -17 -17 -38 -15 -38 3 0 17 -6 18
-35 5 -19 -8 -19 -9 3 -9 12 -1 22 -5 22 -11 0 -5 6 -10 14 -10 21 0 28 -52 9
-70 -14 -13 -15 -13 -10 2 4 11 -1 19 -14 23 -14 5 -19 13 -16 26 4 13 0 19
-11 20 -10 0 -24 2 -32 3 -8 2 -31 -2 -50 -9 -34 -12 -34 -13 25 -10 33 2 54
1 47 -2 -10 -4 -10 -8 -1 -19 17 -21 3 -29 -16 -10 -17 17 -26 19 -63 16 -13
-1 -30 4 -38 11 -12 10 -12 14 6 26 12 8 19 21 16 29 -3 8 1 14 9 14 8 0 15 4
15 10 0 5 -6 7 -13 4 -10 -3 -13 6 -11 36 1 24 -2 40 -10 40 -6 0 4 9 22 20
31 19 43 40 22 40 -5 0 -10 -5 -10 -12 0 -6 -3 -8 -6 -5 -4 4 -1 14 6 22 12
15 14 15 23 0 7 -13 12 -14 23 -4z m-7418 -62 c-10 -7 -10 -9 0 -9 6 0 11 -6
10 -12 -2 -7 4 -12 13 -10 9 1 19 -5 23 -13 3 -9 2 -13 -4 -10 -6 4 -17 -1
-26 -9 -19 -20 -35 -21 -28 -1 4 9 -3 16 -20 21 -21 5 -24 9 -15 20 6 7 8 18
5 23 -10 15 26 31 42 19 11 -9 11 -13 0 -19z m6127 11 c3 -5 2 -10 -4 -10 -5
0 -13 5 -16 10 -3 6 -2 10 4 10 5 0 13 -4 16 -10z m1475 6 c0 -3 -4 -8 -10
-11 -5 -3 -10 -1 -10 4 0 6 5 11 10 11 6 0 10 -2 10 -4z m-130 -47 c0 -11 -4
-17 -10 -14 -5 3 -10 13 -10 21 0 8 5 14 10 14 6 0 10 -9 10 -21z m-5320 -9
c-19 -12 -30 -12 -30 -1 0 10 31 20 40 14 2 -2 -2 -8 -10 -13z m5175 -20 c-9
-41 -17 -33 -9 9 4 17 9 30 11 27 3 -2 2 -19 -2 -36z m-7246 -15 c0 -5 -4 -3
-9 5 -5 8 -9 22 -9 30 0 16 17 -16 18 -35z m2251 10 c0 -8 -4 -15 -10 -15 -5
0 -7 7 -4 15 4 8 8 15 10 15 2 0 4 -7 4 -15z m5551 -8 c-10 -9 -11 -8 -5 6 3
10 9 15 12 12 3 -3 0 -11 -7 -18z m-7224 -2 c0 -8 -4 -15 -9 -15 -4 0 -8 7 -8
15 0 8 4 15 8 15 5 0 9 -7 9 -15z m6878 5 c3 -5 1 -10 -4 -10 -6 0 -11 5 -11
10 0 6 2 10 4 10 3 0 8 -4 11 -10z m-367 -12 c-2 -6 -10 -13 -16 -14 -7 -1 -8
0 -2 3 5 2 8 9 4 14 -3 5 0 9 6 9 7 0 10 -5 8 -12z m-7473 -8 c8 -13 -5 -13
-25 0 -13 8 -13 10 2 10 9 0 20 -4 23 -10z m924 -12 c-11 -20 -25 -23 -34 -8
-9 15 1 26 23 26 17 0 19 -4 11 -18z m-1003 1 c4 -8 9 -7 15 2 4 7 11 10 16 6
4 -5 2 -12 -5 -16 -15 -9 -6 -37 15 -45 12 -5 14 -1 11 19 -6 29 -1 31 28 10
12 -8 24 -11 28 -7 4 3 4 -2 0 -13 -7 -19 -6 -19 12 -3 17 15 21 15 39 1 20
-15 20 -15 -2 -10 -14 3 -20 1 -17 -7 2 -6 -10 -17 -28 -25 -35 -15 -48 -28
-48 -48 0 -7 7 -10 17 -6 11 4 14 3 9 -5 -11 -18 -49 -15 -42 3 3 8 1 15 -3
15 -5 0 -11 -6 -14 -14 -5 -12 -13 -11 -46 6 -23 11 -41 27 -41 35 0 8 -4 12
-9 9 -5 -3 -14 8 -20 24 -8 24 -7 30 4 30 9 0 12 6 9 15 -7 16 -3 18 20 9 8
-3 12 -12 10 -19 -3 -7 0 -16 5 -20 6 -3 9 -11 6 -16 -11 -16 4 -10 26 12 l21
21 -23 24 c-12 13 -17 24 -11 24 6 0 14 -5 18 -11z m178 -19 c4 0 4 5 1 10 -3
6 -1 10 5 10 7 0 9 -7 6 -17 -4 -9 -1 -20 6 -25 10 -6 10 -8 1 -8 -17 0 -53
36 -53 53 1 7 6 5 14 -5 7 -10 16 -18 20 -18z m2551 10 c16 -17 16 -20 3 -15
-9 4 -19 13 -22 21 -7 19 -2 18 19 -6z m4955 10 c0 -5 -7 -10 -15 -10 -8 0
-15 5 -15 10 0 6 7 10 15 10 8 0 15 -4 15 -10z m-7560 -8 c0 -5 -7 -9 -15 -9
-8 0 -12 4 -9 9 3 4 9 8 15 8 5 0 9 -4 9 -8z m2660 -6 c0 -3 -4 -8 -10 -11 -5
-3 -10 -1 -10 4 0 6 5 11 10 11 6 0 10 -2 10 -4z m-70 -26 c0 -5 -2 -10 -4
-10 -3 0 -8 5 -11 10 -3 6 -1 10 4 10 6 0 11 -4 11 -10z m-1660 -40 c0 -5 -2
-10 -4 -10 -3 0 -8 5 -11 10 -3 6 -1 10 4 10 6 0 11 -4 11 -10z m5355 -8 c-3
-3 -11 0 -18 7 -9 10 -8 11 6 5 10 -3 15 -9 12 -12z m1179 -1 c3 -5 -1 -11 -9
-15 -15 -6 -29 7 -18 18 9 9 21 8 27 -3z m51 -11 c3 -5 1 -10 -4 -10 -6 0 -11
5 -11 10 0 6 2 10 4 10 3 0 8 -4 11 -10z m-6570 -10 c-3 -5 -11 -10 -16 -10
-6 0 -7 5 -4 10 3 6 11 10 16 10 6 0 7 -4 4 -10z m2049 -22 c6 -4 16 -2 23 4
11 8 12 7 7 -6 -4 -10 -13 -15 -20 -12 -37 15 -49 18 -35 8 8 -6 10 -15 5 -23
-6 -11 -5 -12 8 -2 8 7 18 10 21 7 11 -12 -3 -24 -27 -24 -19 0 -23 5 -22 28
1 15 5 34 11 42 8 12 9 12 13 0 3 -8 10 -18 16 -22z m3309 -13 c10 -20 9 -20
-11 -2 -12 12 -18 25 -14 35 5 13 6 14 10 1 3 -7 9 -23 15 -34z m1182 26 c3
-5 1 -12 -5 -16 -5 -3 -10 1 -10 9 0 18 6 21 15 7z m-7875 -35 c0 -2 -8 -10
-17 -17 -16 -13 -17 -12 -4 4 13 16 21 21 21 13z m540 -10 c0 -3 -4 -8 -10
-11 -5 -3 -10 -1 -10 4 0 6 5 11 10 11 6 0 10 -2 10 -4z m6250 -4 c0 -5 -7 -9
-15 -9 -8 0 -12 4 -9 9 3 4 9 8 15 8 5 0 9 -4 9 -8z m-5230 -12 c0 -5 -4 -10
-9 -10 -6 0 -13 5 -16 10 -3 6 1 10 9 10 9 0 16 -4 16 -10z m5140 -5 c-10 -13
-9 -15 10 -15 15 0 20 -5 18 -17 -4 -22 -28 -29 -28 -9 0 9 -5 16 -11 16 -6 0
-8 -7 -5 -16 5 -13 2 -15 -16 -10 -13 3 -26 6 -29 6 -4 0 -10 7 -13 16 -5 12
-2 15 10 10 9 -3 27 3 41 14 30 24 40 26 23 5z m-6520 -4 c0 -5 -11 -8 -25 -8
-14 0 -25 3 -25 8 0 5 11 9 25 9 14 0 25 -4 25 -9z m94 -16 c3 -11 15 -31 27
-44 18 -19 19 -25 8 -32 -11 -7 -11 -9 -1 -9 7 0 11 -4 8 -8 -3 -5 -30 -9 -60
-8 -30 1 -52 -2 -49 -6 9 -15 -24 -8 -43 10 -21 18 -38 25 -66 26 -9 0 -14 4
-12 8 3 4 19 5 36 1 24 -5 30 -3 26 8 -3 8 -10 13 -15 12 -5 -1 -10 5 -10 12
0 9 14 17 34 21 18 3 33 11 33 18 0 7 16 11 39 11 32 0 41 -4 45 -20z m-167
-18 c-13 -30 -30 -37 -20 -9 7 21 25 44 29 39 2 -2 -2 -15 -9 -30z m6548 -57
c3 -5 1 -10 -4 -10 -6 0 -11 5 -11 10 0 6 2 10 4 10 3 0 8 -4 11 -10z m278
-42 c-3 -18 -12 -41 -21 -50 -8 -10 -12 -24 -8 -33 8 -23 28 -8 21 16 -4 10
-2 19 2 19 5 0 9 -16 10 -35 0 -24 -4 -35 -13 -35 -8 0 -14 -4 -14 -10 0 -5 7
-10 16 -10 14 0 14 -3 4 -15 -19 -23 -54 -18 -78 10 -12 14 -22 30 -22 35 0 6
-5 10 -11 10 -7 0 -9 -10 -5 -25 5 -21 3 -25 -16 -25 -17 0 -19 -3 -9 -9 14
-9 7 -31 -10 -31 -6 0 -7 5 -4 10 3 6 -1 13 -9 16 -24 9 -19 21 12 32 15 6 21
11 15 11 -20 1 -15 28 7 44 11 8 17 16 14 19 -3 3 13 14 35 24 23 10 41 21 41
25 0 11 30 39 40 39 5 0 7 -15 3 -32z m-6802 -1 c-10 -9 -11 -8 -5 6 3 10 9
15 12 12 3 -3 0 -11 -7 -18z m6584 13 c10 16 21 12 22 -10 1 -16 -3 -19 -23
-14 -18 5 -24 2 -24 -11 0 -9 -3 -14 -7 -12 -5 3 -9 -10 -9 -28 -1 -23 3 -32
14 -31 8 0 17 -5 19 -12 3 -8 -1 -10 -12 -6 -10 4 -21 1 -26 -7 -7 -11 -9 -11
-9 2 0 11 -8 15 -25 14 -22 -3 -23 -1 -15 16 6 10 16 19 22 19 6 0 5 -6 -3
-17 -12 -14 -12 -16 1 -11 8 2 16 14 18 26 3 17 -2 22 -20 23 -16 1 -18 3 -6
6 9 2 20 14 24 26 9 28 25 39 40 26 8 -7 14 -6 19 1z m101 -36 c-21 -20 -28
-17 -14 5 7 11 16 17 20 15 5 -3 2 -12 -6 -20z m-2466 6 c-8 -5 -19 -10 -25
-10 -5 0 -3 5 5 10 8 5 20 10 25 10 6 0 3 -5 -5 -10z m2610 -10 c0 -5 -2 -10
-4 -10 -3 0 -8 5 -11 10 -3 6 -1 10 4 10 6 0 11 -4 11 -10z m-3508 -32 c-7 -7
-12 -8 -12 -2 0 14 12 26 19 19 2 -3 -1 -11 -7 -17z m3258 8 c0 -17 -14 -29
-23 -20 -8 8 3 34 14 34 5 0 9 -6 9 -14z m1070 10 c0 -2 -7 -9 -15 -16 -13
-11 -14 -10 -9 4 5 14 24 23 24 12z m-990 -18 c0 -11 -32 -61 -45 -70 -5 -4
-14 -8 -20 -8 -5 0 -5 4 2 8 14 9 35 61 29 71 -3 4 4 7 15 7 10 0 19 -4 19 -8z
m230 8 c0 -11 -19 -15 -25 -6 -3 5 1 10 9 10 9 0 16 -2 16 -4z m-6140 -16 c0
-5 -7 -10 -15 -10 -8 0 -15 5 -15 10 0 6 7 10 15 10 8 0 15 -4 15 -10z m800
-10 c0 -5 -5 -10 -11 -10 -5 0 -7 5 -4 10 3 6 8 10 11 10 2 0 4 -4 4 -10z
m-40 -16 c0 -8 -4 -12 -10 -9 -5 3 -10 -2 -10 -11 0 -14 -3 -15 -12 -6 -9 9
-8 15 8 27 24 18 24 18 24 -1z m6170 -4 c0 -14 -7 -20 -22 -21 -18 -1 -19 -2
-5 -6 20 -5 15 -40 -7 -58 -7 -5 -11 -17 -9 -25 3 -10 -1 -8 -12 5 -24 31 -16
96 15 112 34 17 40 16 40 -7z m-6950 -5 c7 -9 10 -19 6 -22 -4 -4 -11 -1 -16
7 -7 10 -10 11 -10 3 0 -7 -4 -13 -8 -13 -4 0 -8 9 -8 20 0 24 18 26 36 5z
m807 -23 c-9 -2 -15 -9 -13 -15 1 -7 1 -9 -1 -4 -8 13 -23 8 -23 -8 0 -8 5
-15 10 -15 6 0 4 -11 -5 -24 -11 -17 -22 -22 -40 -18 -30 5 -32 18 -5 27 11 3
20 11 20 16 0 13 -18 11 -23 -3 -2 -7 -6 -1 -9 15 -5 24 -3 27 14 21 10 -3 24
-1 31 4 7 6 17 12 22 14 6 1 9 7 7 12 -2 5 5 3 14 -5 15 -13 15 -14 1 -17z
m5667 20 c2 -4 -4 -8 -14 -8 -10 0 -16 4 -14 8 3 4 9 8 14 8 5 0 11 -4 14 -8z
m-5579 -12 c3 -5 1 -10 -4 -10 -6 0 -11 5 -11 10 0 6 2 10 4 10 3 0 8 -4 11
-10z m4855 -11 c0 -6 -4 -7 -10 -4 -5 3 -10 11 -10 16 0 6 5 7 10 4 6 -3 10
-11 10 -16z m644 -16 c4 -9 2 -21 -4 -27 -8 -8 -11 -7 -8 4 2 9 -4 14 -14 14
-21 -2 -24 12 -5 19 21 9 25 8 31 -10z m36 -9 c0 -8 -4 -12 -10 -9 -5 3 -10
10 -10 16 0 5 5 9 10 9 6 0 10 -7 10 -16z m208 10 c-10 -9 26 -41 40 -36 7 3
10 -1 7 -11 -4 -8 1 -17 10 -21 9 -3 13 -11 9 -17 -4 -7 -3 -9 4 -5 6 3 13 2
17 -4 3 -5 1 -10 -5 -10 -6 0 -8 -5 -5 -10 4 -6 10 -8 14 -6 3 3 7 -4 7 -14 0
-12 -6 -16 -16 -12 -12 4 -13 2 -2 -9 6 -7 12 -20 11 -28 0 -11 -2 -12 -6 -3
-2 6 -10 12 -17 12 -7 0 -21 9 -30 19 -21 23 -64 18 -45 -5 14 -17 13 -18 -28
-32 -20 -7 -33 -7 -33 -1 0 5 10 9 22 9 l21 0 -23 20 c-24 21 -56 28 -45 10 3
-5 2 -10 -3 -10 -16 0 -22 13 -11 27 23 26 -3 12 -30 -17 -26 -29 -53 -32 -30
-4 13 16 4 34 -17 34 -8 0 -14 5 -14 11 0 7 11 8 30 4 19 -4 36 -2 45 5 12 10
18 10 31 -1 13 -10 17 -10 24 1 5 8 6 18 4 22 -3 4 5 7 17 5 17 -1 22 4 25 27
4 36 11 56 20 56 4 0 5 -3 2 -6z m-4198 -14 c0 -5 -4 -10 -10 -10 -5 0 -10 5
-10 10 0 6 5 10 10 10 6 0 10 -4 10 -10z m4165 0 c3 -5 -1 -10 -10 -10 -9 0
-13 5 -10 10 3 6 8 10 10 10 2 0 7 -4 10 -10z m-523 -37 c-2 -12 0 -23 5 -23
6 0 8 -12 5 -26 l-5 -27 -13 24 c-7 13 -10 28 -7 32 3 5 -5 6 -17 2 -17 -5
-21 -4 -15 6 25 43 54 51 47 12z m-3662 13 c0 -3 -4 -8 -10 -11 -5 -3 -10 -1
-10 4 0 6 5 11 10 11 6 0 10 -2 10 -4z m4920 -16 c-6 -11 -16 -17 -22 -14 -7
5 -5 12 7 21 25 18 28 17 15 -7z m-7240 6 c0 -2 -13 -18 -28 -34 l-29 -31 0
29 c0 28 3 30 50 39 4 0 7 -1 7 -3z m5925 -6 c-3 -5 -11 -10 -16 -10 -6 0 -7
5 -4 10 3 6 11 10 16 10 6 0 7 -4 4 -10z m1365 1 c0 -6 -5 -13 -10 -16 -6 -4
-8 -10 -5 -14 2 -5 -4 -16 -14 -25 -16 -15 -20 -15 -31 -2 -10 13 -9 18 3 31
9 8 20 15 26 15 6 0 11 5 11 10 0 6 5 10 10 10 6 0 10 -4 10 -9z m-1423 -7
c-3 -3 -12 -4 -19 -1 -8 3 -5 6 6 6 11 1 17 -2 13 -5z m508 -3 c-3 -6 3 -14
12 -20 10 -5 14 -13 10 -18 -10 -9 -39 26 -31 38 3 5 7 9 10 9 3 0 3 -4 -1 -9z
m799 -12 c-5 -9 1 -10 20 -5 19 5 26 3 21 -4 -4 -6 1 -22 9 -35 15 -22 15 -25
1 -25 -8 0 -15 -4 -15 -10 0 -5 -5 -10 -11 -10 -5 0 -8 3 -6 8 3 4 -2 14 -11
22 -14 13 -15 13 -10 -1 4 -10 -1 -15 -13 -16 -10 -1 -19 2 -19 8 0 5 5 9 11
9 8 0 8 4 0 14 -9 11 -6 13 14 11 27 -3 34 9 10 19 -17 6 -20 26 -4 26 5 0 7
-5 3 -11z m-5664 -3 c0 -3 -4 -8 -10 -11 -5 -3 -10 -1 -10 4 0 6 5 11 10 11 6
0 10 -2 10 -4z m5524 -2 c20 -8 21 -34 2 -34 -12 0 -30 -34 -27 -52 1 -5 -5
-8 -11 -8 -9 0 -8 -4 2 -10 12 -8 11 -10 -7 -10 -27 0 -27 1 -12 34 7 14 16
23 22 19 6 -3 8 8 5 31 -4 37 -1 40 26 30z m-7062 -46 c-8 -8 -9 -4 -5 13 4
13 8 18 11 10 2 -7 -1 -18 -6 -23z m68 5 c0 -13 3 -13 15 -3 9 8 15 9 15 2 0
-21 -20 -23 -45 -5 -30 22 -32 33 -5 26 11 -3 20 -12 20 -20z m5930 -4 c0 -18
-18 -9 -23 12 -4 16 -3 18 9 8 8 -6 14 -15 14 -20z m-5872 -4 c-3 -3 -9 2 -12
12 -6 14 -5 15 5 6 7 -7 10 -15 7 -18z m42 15 c0 -5 -5 -10 -11 -10 -5 0 -7 5
-4 10 3 6 8 10 11 10 2 0 4 -4 4 -10z m6855 0 c3 -5 -1 -10 -9 -10 -8 0 -18 5
-21 10 -3 6 1 10 9 10 8 0 18 -4 21 -10z m290 -28 c-3 -3 -11 0 -18 7 -9 10
-8 11 6 5 10 -3 15 -9 12 -12z m-7895 -2 c0 -5 -2 -10 -4 -10 -3 0 -8 5 -11
10 -3 6 -1 10 4 10 6 0 11 -4 11 -10z m7030 -24 c0 -3 -4 -8 -10 -11 -5 -3
-10 -1 -10 4 0 6 5 11 10 11 6 0 10 -2 10 -4z m520 -20 c0 -3 -4 -8 -10 -11
-5 -3 -10 -1 -10 4 0 6 5 11 10 11 6 0 10 -2 10 -4z m-6844 -113 c-10 -10 -19
5 -10 18 6 11 8 11 12 0 2 -7 1 -15 -2 -18z m2590 10 c-5 -15 -3 -14 10 2 14
16 16 17 11 2 -4 -9 -2 -29 3 -43 6 -14 6 -23 1 -20 -5 4 -11 3 -14 -1 -2 -5
-2 -2 0 6 2 8 -4 22 -13 32 -9 10 -13 23 -9 28 10 17 18 13 11 -6z m-36 -3 c0
-5 -4 -10 -10 -10 -5 0 -10 5 -10 10 0 6 5 10 10 10 6 0 10 -4 10 -10z m93 -4
c4 -10 1 -13 -9 -9 -15 6 -19 23 -5 23 5 0 11 -7 14 -14z m-3543 -40 c0 -2 -7
-7 -16 -10 -8 -3 -12 -2 -9 4 6 10 25 14 25 6z m545 -24 c-8 -8 -25 10 -19 20
4 6 9 5 15 -3 4 -7 6 -15 4 -17z m-238 2 c-3 -3 -12 -4 -19 -1 -8 3 -5 6 6 6
11 1 17 -2 13 -5z m313 -34 c0 -5 -2 -10 -4 -10 -3 0 -8 5 -11 10 -3 6 -1 10
4 10 6 0 11 -4 11 -10z m-1455 -10 c3 -6 -1 -7 -9 -4 -18 7 -21 14 -7 14 6 0
13 -4 16 -10z m895 -14 c0 -2 -7 -7 -16 -10 -8 -3 -12 -2 -9 4 6 10 25 14 25
6z m-1040 -47 c0 -7 -6 -4 -15 7 -19 25 -19 40 0 20 8 -8 15 -20 15 -27z
m1060 25 c0 -3 -4 -13 -10 -23 -11 -22 15 -65 36 -57 8 3 14 1 14 -4 0 -21
-37 -8 -63 21 -17 20 -33 29 -43 25 -10 -4 -14 -1 -11 6 2 7 12 12 22 10 10
-2 14 1 10 7 -3 7 0 8 9 5 9 -3 16 -1 16 5 0 6 5 11 10 11 6 0 10 -3 10 -6z
m6985 -4 c3 -5 -1 -10 -9 -10 -10 0 -13 -6 -10 -15 4 -9 0 -15 -10 -15 -9 0
-16 -4 -16 -10 0 -5 -4 -10 -10 -10 -5 0 -10 7 -10 15 0 8 8 15 18 15 14 0 15
2 2 10 -13 9 -13 10 0 11 10 0 8 3 -5 9 -17 7 -15 9 12 9 17 1 35 -3 38 -9z
m-7865 -31 c0 -6 7 -6 19 1 25 13 34 13 26 0 -3 -6 4 -10 17 -10 l23 -1 -25
-14 c-17 -9 -27 -10 -31 -3 -4 6 -12 7 -18 3 -14 -8 -43 13 -35 26 3 5 0 9 -5
9 -6 0 -11 5 -11 10 0 7 6 7 20 0 11 -6 20 -15 20 -21z m896 5 c-4 -11 -2 -15
8 -11 10 4 13 1 9 -9 -7 -19 -19 -18 -27 2 -9 23 -7 34 5 34 6 0 8 -7 5 -16z
m54 -9 c0 -8 -2 -15 -4 -15 -2 0 -6 7 -10 15 -3 8 -1 15 4 15 6 0 10 -7 10
-15z m6810 9 c0 -8 -19 -13 -24 -6 -3 5 1 9 9 9 8 0 15 -2 15 -3z m355 -12
c-3 -3 -11 0 -18 7 -9 10 -8 11 6 5 10 -3 15 -9 12 -12z m-8145 -17 c0 -21
-17 -27 -24 -9 -10 25 -7 34 9 28 8 -4 15 -12 15 -19z m8081 8 c13 -17 13 -17
-6 -3 -11 8 -22 16 -24 17 -2 2 0 3 6 3 6 0 17 -8 24 -17z m-7202 -16 c-2 -1
-12 -9 -22 -16 -15 -12 -17 -12 -11 3 3 9 13 16 22 16 8 0 13 -1 11 -3z m-859
-17 c0 -5 -4 -10 -10 -10 -5 0 -10 5 -10 10 0 6 5 10 10 10 6 0 10 -4 10 -10z
m7740 6 c0 -3 -4 -8 -10 -11 -5 -3 -10 -1 -10 4 0 6 5 11 10 11 6 0 10 -2 10
-4z m-6860 -26 c0 -5 -2 -10 -4 -10 -3 0 -8 5 -11 10 -3 6 -1 10 4 10 6 0 11
-4 11 -10z m7590 -20 c3 -1 13 -2 23 -1 16 2 22 -10 18 -33 -1 -5 4 -13 11
-18 8 -6 4 -7 -12 -2 -14 4 -26 9 -28 13 -9 22 -22 32 -40 34 -12 1 -22 5 -22
9 0 7 30 5 50 -2z m85 -41 c11 -16 1 -19 -13 -3 -7 8 -8 14 -3 14 5 0 13 -5
16 -11z m37 -26 c-6 -2 -10 -9 -6 -14 3 -5 1 -9 -5 -9 -5 0 -12 4 -15 9 -6 9
10 19 29 19 6 0 4 -2 -3 -5z m-4482 -7 c0 -3 -4 -8 -10 -11 -5 -3 -10 -1 -10
4 0 6 5 11 10 11 6 0 10 -2 10 -4z m-66 -52 c1 -1 11 -5 23 -8 18 -6 22 -4 17
8 -3 9 -1 16 5 16 6 0 11 -7 11 -15 0 -18 27 -20 33 -2 2 6 7 10 10 7 13 -12
-11 -30 -46 -34 -25 -4 -37 -1 -37 7 0 7 -4 6 -10 -3 -10 -16 -14 -10 -24 45
-5 29 -5 30 6 5 7 -14 12 -26 12 -26z m103 24 c-3 -8 -6 -5 -6 6 -1 11 2 17 5
13 3 -3 4 -12 1 -19z m-7 -68 c0 -5 -4 -10 -10 -10 -5 0 -10 5 -10 10 0 6 5
10 10 10 6 0 10 -4 10 -10z m-89 -25 c11 7 11 3 3 -20 -6 -14 -8 -13 -19 7 -6
13 -9 28 -6 33 3 6 7 2 9 -8 2 -9 8 -15 13 -12z m3961 3 c-7 -7 -12 -8 -12 -2
0 14 12 26 19 19 2 -3 -1 -11 -7 -17z m-3922 -2 c0 -3 -4 -8 -10 -11 -5 -3
-10 -1 -10 4 0 6 5 11 10 11 6 0 10 -2 10 -4z m280 -226 c0 -11 -4 -20 -9 -20
-5 0 -7 9 -4 20 3 11 7 20 9 20 2 0 4 -9 4 -20z m-380 -14 c0 -2 -16 -14 -36
-25 -23 -14 -34 -27 -31 -36 4 -9 -4 -16 -23 -20 -16 -3 -31 -14 -34 -23 -2
-9 -4 -3 -3 13 2 25 6 29 25 27 12 -2 22 2 22 8 0 6 -4 9 -9 6 -5 -3 -15 2
-22 11 -12 14 -11 15 8 9 13 -4 33 0 54 13 34 19 49 25 49 17z m-5005 -152
c14 -15 14 -18 0 -34 -8 -9 -12 -20 -8 -23 3 -4 -8 -5 -24 -3 -21 2 -30 -1
-27 -8 8 -21 -47 -12 -58 9 -11 18 -10 19 6 6 16 -13 17 -13 14 5 -2 13 2 19
15 18 10 -1 25 9 34 22 18 28 26 30 48 8z m-55 -184 c-12 -22 -25 -26 -36 -8
-4 6 -3 8 3 5 6 -4 13 0 17 8 3 8 10 15 16 15 8 0 8 -6 0 -20z m-65 -20 c-3
-5 1 -10 9 -10 21 0 21 -16 0 -24 -22 -8 -47 17 -31 33 14 14 30 15 22 1z
m-52 -47 c-7 -2 -21 -2 -30 0 -10 3 -4 5 12 5 17 0 24 -2 18 -5z m-315 -50
c-10 -2 -18 -9 -18 -15 0 -6 -3 -9 -6 -5 -10 10 6 27 24 26 15 -1 15 -2 0 -6z
m982 -358 c0 -15 -37 -12 -53 4 -9 10 -8 11 6 6 13 -6 17 -2 17 16 1 23 1 23
15 5 8 -11 15 -25 15 -31z m-6977 -1185 c3 -11 1 -20 -4 -20 -5 0 -9 9 -9 20
0 11 2 20 4 20 2 0 6 -9 9 -20z m12127 -310 c0 -5 -2 -10 -4 -10 -3 0 -8 5
-11 10 -3 6 -1 10 4 10 6 0 11 -4 11 -10z m-848 -61 c3 -16 1 -29 -4 -29 -4 0
-8 -6 -8 -14 0 -7 -9 -16 -20 -19 -11 -3 -20 -1 -20 4 0 5 -8 9 -19 9 -28 0
-33 35 -8 57 11 10 17 12 13 6 -12 -21 8 -15 23 6 19 25 38 17 43 -20z m-302
-78 c-15 -29 -27 -33 -33 -11 -6 23 0 30 25 30 15 0 17 -3 8 -19z m146 -148
c4 -24 -25 -41 -37 -21 -9 15 8 51 23 46 6 -2 13 -13 14 -25z m-12462 2 c-4
-8 -8 -15 -10 -15 -2 0 -4 7 -4 15 0 8 4 15 10 15 5 0 7 -7 4 -15z m12161 -64
c-3 -6 -11 -11 -17 -11 -6 0 -6 6 2 15 14 17 26 13 15 -4z m610 -52 c10 -14 1
-21 -19 -13 -9 3 -13 10 -10 15 7 12 21 11 29 -2z m-12085 -573 c0 -3 -4 -8
-10 -11 -5 -3 -10 -1 -10 4 0 6 5 11 10 11 6 0 10 -2 10 -4z m80 -23 c-1 -18
-18 -35 -24 -24 -4 6 -2 11 4 11 6 0 8 5 5 10 -3 6 -1 10 4 10 6 0 11 -3 11
-7z m-90 -7 c0 -3 -4 -8 -10 -11 -5 -3 -10 -1 -10 4 0 6 5 11 10 11 6 0 10 -2
10 -4z m129 -73 c9 -7 11 -13 6 -13 -16 0 -35 22 -34 40 0 13 1 13 6 0 4 -8
13 -20 22 -27z m11391 -113 c0 -5 -4 -10 -10 -10 -5 0 -10 5 -10 10 0 6 5 10
10 10 6 0 10 -4 10 -10z m-11170 -134 c0 -8 -8 -14 -19 -13 -11 0 -17 6 -14
14 7 18 33 17 33 -1z m-137 -141 c-3 -9 -8 -14 -10 -11 -3 3 -2 9 2 15 9 16
15 13 8 -4z m-243 -170 c0 -9 -6 -12 -15 -9 -8 4 -12 10 -9 15 8 14 24 10 24
-6z m16055 -415 c-3 -5 -1 -10 4 -10 6 0 11 4 11 9 0 13 21 8 50 -12 18 -12
20 -17 8 -17 -9 0 -19 -8 -21 -17 -3 -11 -5 -7 -6 10 -1 17 -7 27 -17 27 -8 0
-12 -4 -9 -10 9 -14 -8 -13 -23 2 -15 15 -15 28 -1 28 5 0 7 -4 4 -10z m395
-330 c0 -5 -4 -10 -10 -10 -5 0 -10 5 -10 10 0 6 5 10 10 10 6 0 10 -4 10 -10z
m-4030 -10 c0 -5 -2 -10 -4 -10 -3 0 -8 5 -11 10 -3 6 -1 10 4 10 6 0 11 -4
11 -10z m637 -72 c-3 -8 -6 -5 -6 6 -1 11 2 17 5 13 3 -3 4 -12 1 -19z m3266
-47 c-4 -15 0 -18 21 -14 14 3 26 1 26 -5 0 -6 3 -17 6 -26 3 -9 1 -16 -5 -16
-6 0 -11 9 -11 20 0 11 -3 20 -7 20 -5 0 -8 -11 -8 -24 0 -13 3 -22 8 -19 4 2
7 -1 7 -6 0 -12 -30 -15 -30 -3 0 4 -4 13 -9 21 -7 10 -13 11 -31 1 -15 -8
-20 -8 -16 -1 4 6 2 11 -3 11 -6 0 -11 7 -11 15 0 10 -6 12 -17 8 -17 -7 -17
-6 -1 11 10 9 21 15 25 13 5 -3 17 -1 28 4 30 12 34 11 28 -10z m91 -37 c5
-14 4 -15 -9 -4 -17 14 -19 20 -6 20 5 0 12 -7 15 -16z m-3844 -114 c0 -5 -4
-10 -10 -10 -5 0 -10 5 -10 10 0 6 5 10 10 10 6 0 10 -4 10 -10z m2436 -132
c-3 -13 -5 -25 -5 -28 -1 -3 -5 1 -10 9 -6 9 -5 19 2 27 16 18 17 17 13 -8z
m247 -1 c-1 -4 2 -20 7 -37 7 -24 6 -30 -7 -30 -11 0 -14 -6 -9 -24 6 -25 -7
-36 -42 -36 -13 0 -14 2 -4 9 13 8 20 38 25 102 1 17 7 26 17 24 8 -1 14 -5
13 -8z m-52 -14 c13 -15 12 -15 -8 -4 -19 10 -22 9 -17 -4 4 -8 11 -15 17 -15
6 0 8 -2 5 -5 -11 -11 -38 8 -38 26 0 23 23 25 41 2z m359 -24 c0 -5 -9 -9
-20 -9 -13 0 -18 5 -14 14 6 15 34 11 34 -5z m-407 -22 c-4 -7 0 -8 11 -4 12
5 16 3 13 -5 -2 -7 -12 -13 -22 -13 -10 0 -20 -6 -23 -13 -2 -7 5 -12 17 -12
22 0 30 -20 9 -20 -8 -1 -6 -6 4 -14 10 -7 15 -16 11 -19 -3 -4 -14 3 -24 15
-13 14 -19 16 -19 7 0 -12 -2 -12 -9 0 -5 7 -13 11 -19 7 -5 -3 -13 2 -16 11
-4 9 -1 20 6 25 10 6 10 8 -1 8 -11 0 -11 3 -1 15 7 8 19 15 27 15 8 0 12 4 9
9 -4 5 3 7 14 4 11 -3 17 -10 13 -16z m413 -26 c-9 -14 -36 -14 -36 0 0 5 5 7
10 4 6 -3 10 2 10 11 0 13 3 15 11 7 6 -6 8 -16 5 -22z m271 1 c8 -5 8 -12 -2
-25 -7 -10 -16 -14 -19 -8 -3 5 0 12 6 14 10 4 9 8 -2 16 -17 12 -2 15 17 3z
m-632 -61 c3 -5 1 -12 -5 -16 -5 -3 -10 1 -10 9 0 18 6 21 15 7z m-61 -17 c3
-8 -3 -12 -14 -11 -25 2 -33 23 -9 23 10 0 21 -6 23 -12z m386 -34 c0 -5 -7
-7 -15 -4 -8 4 -15 8 -15 10 0 2 7 4 15 4 8 0 15 -4 15 -10z m-81 -27 c0 -10
2 -29 4 -43 3 -27 -10 -53 -24 -45 -4 3 -6 12 -2 20 3 8 0 15 -6 15 -6 0 -11
7 -11 15 0 8 5 15 10 15 6 0 10 -5 10 -12 0 -6 3 -8 6 -5 4 4 1 14 -6 23 -12
13 -11 17 1 25 18 11 18 12 18 -8z m199 -7 c23 -6 31 -11 24 -18 -6 -6 -8 -17
-5 -26 4 -10 1 -13 -8 -10 -8 3 -29 -2 -48 -9 -35 -15 -56 -9 -31 8 13 9 12
10 -2 6 -26 -9 -29 4 -5 24 l22 18 -25 1 c-22 1 -23 2 -6 9 22 8 36 8 84 -3z
m-292 -34 c15 -9 34 -47 34 -65 0 -8 -11 -18 -25 -21 -14 -4 -23 -11 -20 -16
3 -6 2 -10 -3 -10 -17 0 -21 13 -11 31 7 14 6 17 -4 13 -9 -3 -13 2 -12 15 2
26 15 40 15 17 0 -20 31 -19 38 2 2 8 -2 10 -14 5 -12 -4 -15 -3 -10 5 4 7 2
12 -3 12 -6 0 -11 5 -11 10 0 12 11 13 26 2z m1704 -4972 c0 -5 -2 -10 -4 -10
-3 0 -8 5 -11 10 -3 6 -1 10 4 10 6 0 11 -4 11 -10z m415 -118 c-10 -11 -33
20 -28 39 5 18 7 18 19 -7 8 -15 12 -29 9 -32z m173 -4 c-3 -7 -13 -15 -23
-16 -15 -4 -16 -2 -4 12 17 19 32 21 27 4z m-468 -52 c0 -2 -7 -9 -15 -16 -12
-10 -15 -10 -15 4 0 9 7 16 15 16 8 0 15 -2 15 -4z m631 -43 c12 -15 12 -16
-3 -10 -22 8 -23 0 -3 -19 8 -9 15 -11 15 -5 0 6 6 9 13 7 6 -1 9 -1 5 1 -5 3
-8 11 -8 20 0 13 2 13 15 -1 17 -16 20 -72 5 -81 -6 -4 -7 1 -3 11 4 12 3 15
-6 10 -12 -8 -49 31 -63 66 -9 23 14 24 33 1z m924 -1033 c3 -6 -1 -13 -10
-16 -19 -8 -30 0 -20 15 8 14 22 14 30 1z m-788 -152 c-2 -7 0 -21 5 -30 6
-13 5 -18 -5 -18 -10 0 -16 42 -8 58 4 8 12 0 8 -10z m63 -74 c0 -2 -9 0 -20
6 -11 6 -20 13 -20 16 0 2 9 0 20 -6 11 -6 20 -13 20 -16z m910 -468 c0 -2 -7
-7 -16 -10 -8 -3 -12 -2 -9 4 6 10 25 14 25 6z m-515 -216 c3 -5 1 -10 -4 -10
-6 0 -11 5 -11 10 0 6 2 10 4 10 3 0 8 -4 11 -10z m233 -16 c-30 -17 -38 -17
-38 -1 0 9 12 14 31 14 31 0 31 0 7 -13z"/>
<path d="M34096 18101 c-3 -5 0 -11 7 -14 8 -3 14 1 14 9 0 16 -13 19 -21 5z"/>
<path d="M30910 17809 c0 -5 5 -7 10 -4 6 3 10 8 10 11 0 2 -4 4 -10 4 -5 0
-10 -5 -10 -11z"/>
<path d="M30765 17700 c-3 -5 1 -10 9 -10 9 0 16 5 16 10 0 6 -4 10 -9 10 -6
0 -13 -4 -16 -10z"/>
<path d="M30820 17660 c0 -5 5 -10 11 -10 5 0 7 5 4 10 -3 6 -8 10 -11 10 -2
0 -4 -4 -4 -10z"/>
<path d="M30871 17594 c0 -11 3 -14 6 -6 3 7 2 16 -1 19 -3 4 -6 -2 -5 -13z"/>
<path d="M31018 17593 c-24 -6 -23 -23 2 -23 11 0 20 7 20 15 0 8 -1 14 -2 14
-2 -1 -11 -3 -20 -6z"/>
<path d="M31116 17685 c4 -8 10 -12 15 -9 11 6 2 24 -11 24 -5 0 -7 -7 -4 -15z"/>
<path d="M37148 17343 c7 -3 16 -2 19 1 4 3 -2 6 -13 5 -11 0 -14 -3 -6 -6z"/>
<path d="M37364 17028 c-4 -6 -1 -14 6 -18 7 -4 9 -13 6 -19 -4 -6 -4 -11 1
-11 4 0 13 11 19 24 10 21 9 25 -7 29 -11 3 -22 1 -25 -5z"/>
<path d="M37440 16934 c0 -8 5 -12 10 -9 6 4 8 11 5 16 -9 14 -15 11 -15 -7z"/>
<path d="M37380 16900 c0 -5 5 -10 10 -10 6 0 10 5 10 10 0 6 -4 10 -10 10 -5
0 -10 -4 -10 -10z"/>
<path d="M37437 16886 c5 -22 8 -24 27 -14 27 14 35 22 16 16 -8 -3 -22 1 -31
9 -15 12 -16 11 -12 -11z"/>
<path d="M37415 16860 c-3 -5 -1 -10 4 -10 6 0 11 5 11 10 0 6 -2 10 -4 10 -3
0 -8 -4 -11 -10z"/>
<path d="M37019 16944 c-7 -9 -14 -25 -16 -36 -3 -17 -1 -18 12 -4 8 8 15 20
15 26 0 6 4 8 10 5 6 -3 7 1 4 9 -8 20 -8 20 -25 0z"/>
<path d="M37195 16950 c3 -5 8 -10 11 -10 2 0 4 5 4 10 0 6 -5 10 -11 10 -5 0
-7 -4 -4 -10z"/>
<path d="M32267 16696 c-4 -10 -1 -13 9 -9 7 3 14 9 14 14 0 14 -17 10 -23 -5z"/>
<path d="M32456 16584 c-4 -10 -1 -14 6 -12 15 5 23 28 10 28 -5 0 -13 -7 -16
-16z"/>
<path d="M37880 16510 c0 -5 5 -10 10 -10 6 0 10 5 10 10 0 6 -4 10 -10 10 -5
0 -10 -4 -10 -10z"/>
<path d="M37923 16465 c-3 -9 -3 -18 -1 -21 3 -3 8 4 11 16 6 23 -1 27 -10 5z"/>
<path d="M35936 16355 c-11 -8 -15 -15 -9 -15 19 0 43 12 43 21 0 13 -12 11
-34 -6z"/>
<path d="M36705 16209 c-9 -14 -2 -20 14 -10 8 6 9 11 3 15 -6 3 -14 1 -17 -5z"/>
<path d="M37437 16230 c-3 -11 -2 -20 3 -20 4 0 10 9 13 20 3 11 2 20 -3 20
-4 0 -10 -9 -13 -20z"/>
<path d="M37400 16212 c0 -12 19 -26 26 -19 2 2 -2 10 -11 17 -9 8 -15 8 -15
2z"/>
<path d="M37446 16144 c-4 -9 -4 -19 -1 -22 2 -3 7 3 11 12 4 9 4 19 1 22 -2
3 -7 -3 -11 -12z"/>
<path d="M37520 16070 c0 -5 5 -10 10 -10 6 0 10 5 10 10 0 6 -4 10 -10 10 -5
0 -10 -4 -10 -10z"/>
<path d="M29725 16090 c-3 -5 -1 -10 4 -10 6 0 11 5 11 10 0 6 -2 10 -4 10 -3
0 -8 -4 -11 -10z"/>
<path d="M29587 16079 c7 -7 15 -10 18 -7 3 3 -2 9 -12 12 -14 6 -15 5 -6 -5z"/>
<path d="M29665 16082 c-6 -4 -11 -16 -12 -27 -1 -11 0 -14 3 -7 3 6 12 12 20
12 8 0 14 4 14 9 0 14 -14 21 -25 13z"/>
<path d="M29681 16034 c0 -11 3 -14 6 -6 3 7 2 16 -1 19 -3 4 -6 -2 -5 -13z"/>
<path d="M29610 16030 c0 -5 5 -10 10 -10 6 0 10 5 10 10 0 6 -4 10 -10 10 -5
0 -10 -4 -10 -10z"/>
<path d="M29610 15925 c-7 -9 -10 -18 -6 -22 3 -3 6 -1 6 6 0 7 5 9 10 6 6 -3
10 1 10 9 0 20 -4 20 -20 1z"/>
<path d="M29590 15884 c0 -13 18 -39 24 -34 2 3 -2 14 -10 24 -8 11 -14 16
-14 10z"/>
<path d="M29546 15871 c-7 -10 22 -37 30 -28 9 8 -3 37 -15 37 -5 0 -12 -4
-15 -9z"/>
<path d="M36290 15800 c0 -5 5 -10 10 -10 6 0 10 5 10 10 0 6 -4 10 -10 10 -5
0 -10 -4 -10 -10z"/>
<path d="M36230 15721 c0 -6 4 -13 10 -16 6 -3 7 1 4 9 -7 18 -14 21 -14 7z"/>
<path d="M36870 15580 c0 -5 -7 -10 -15 -10 -8 0 -15 -4 -15 -10 0 -16 15 -12
35 10 10 11 13 20 7 20 -7 0 -12 -4 -12 -10z"/>
<path d="M32435 12290 c3 -5 8 -10 11 -10 2 0 4 5 4 10 0 6 -5 10 -11 10 -5 0
-7 -4 -4 -10z"/>
<path d="M35660 9500 c0 -5 5 -10 10 -10 6 0 10 5 10 10 0 6 -4 10 -10 10 -5
0 -10 -4 -10 -10z"/>
</g>
</svg>
